<?xml version="1.0" encoding="UTF-8" standalone="no"?><!DOCTYPE svg PUBLIC "-//W3C//DTD SVG 1.1//EN" "http://www.w3.org/Graphics/SVG/1.1/DTD/svg11.dtd"><svg width="100%" height="100%" viewBox="0 0 42249 14706" version="1.1" xmlns="http://www.w3.org/2000/svg" xmlns:xlink="http://www.w3.org/1999/xlink" xml:space="preserve" xmlns:serif="http://www.serif.com/" style="fill-rule:evenodd;clip-rule:evenodd;stroke-linejoin:round;stroke-miterlimit:2;"><path id="path4" d="M6992.19,7608.06c-122.394,184.897 -270.832,359.375 -428.385,516.929c-148.437,148.437 -315.103,272.134 -498.697,368.49c-200.522,96.353 -419.272,148.438 -638.022,140.625l-2247.4,0c-375,0 -558.594,-174.481 -558.594,-516.928l-0,-6830.72c-0,-183.593 9.115,-368.49 52.084,-542.968c26.041,-122.397 95.053,-235.678 200.522,-305.991c122.394,-79.428 261.719,-122.397 411.456,-131.509c235.678,-26.044 471.357,-35.157 708.335,-26.044l384.115,-0l0,-279.947l-4335.94,0l-0,279.947l148.437,-0c183.594,-0 358.072,9.116 533.853,35.156c140.625,16.928 270.835,70.313 384.116,157.553c104.166,79.428 183.594,194.01 227.863,324.219c52.084,184.897 79.428,368.491 70.312,561.197l0,6609.38c0,333.334 -70.312,570.312 -200.519,718.75c-131.512,140.625 -393.231,210.937 -769.531,210.937l-436.2,0l0,279.95l6572.91,0l1136.72,-2156.25l-263.022,0c-174.478,192.707 -315.103,394.532 -454.428,587.238l0.013,-0.01Z" style="fill:#007f48;fill-rule:nonzero;"/><path id="path6" d="M13819.1,1260.41c192.706,9.116 376.3,35.156 569.009,79.428c131.509,26.041 244.791,96.353 332.031,192.71c87.241,105.468 140.625,236.978 166.666,377.603c35.156,201.822 52.084,403.647 44.272,613.281l-0,2752.6c-0,779.95 -227.866,1376.3 -673.178,1796.88c-445.313,420.575 -1083.33,621.094 -1904.95,621.094c-385.416,9.116 -769.532,-52.081 -1127.6,-174.478c-296.875,-105.469 -576.825,-272.134 -804.688,-492.188c-218.75,-209.634 -384.116,-464.843 -480.469,-753.906c-104.168,-315.103 -166.668,-648.437 -157.553,-981.772l0,-3162.75c0,-324.219 61.197,-552.084 183.594,-674.478c122.397,-122.397 376.303,-184.897 751.303,-184.897l61.197,0l-0,-218.75l-2912.76,0l-0,218.75c157.55,0 315.103,9.116 471.353,35.156c104.165,16.929 209.634,52.085 296.875,122.397c79.428,61.197 131.509,148.438 157.553,244.791c35.156,131.509 52.081,272.134 44.269,411.459l-0,3384.12c-0,473.96 87.24,893.232 253.906,1244.79c166.669,341.144 402.344,648.438 700.522,885.416c305.99,244.79 664.062,429.687 1040.37,535.156c420.572,122.397 847.657,175.781 1276.04,175.781c446.616,0 884.116,-61.197 1311.2,-184.897c384.115,-113.281 751.303,-298.175 1066.41,-542.968c305.991,-244.791 550.781,-561.197 717.45,-920.572c174.478,-368.491 263.019,-805.991 263.019,-1305.99l-0,-3084.63c-0,-350.26 78.125,-596.353 227.865,-763.022c148.438,-166.666 419.272,-244.791 795.572,-253.906l0,-218.75l-2657.55,-0l0,227.865l-11.718,0l-0,-1.325Z" style="fill:#007f48;fill-rule:nonzero;"/><path id="path8" d="M19894.4,7880.22c-218.75,-9.116 -446.612,-61.2 -647.134,-148.438c-174.478,-79.428 -261.719,-253.906 -261.719,-507.812l305.991,-5173.19l26.04,0l2885.42,6049.47l263.022,-0l2815.1,-6049.47l26.044,0l324.218,5128.91c0,236.979 -78.125,412.76 -227.865,526.041c-157.554,113.281 -411.46,175.781 -778.647,175.781l-0,218.75l2911.46,0l0,-218.75c-174.478,0 -350.259,-9.112 -524.741,-26.04c-105.468,-9.116 -200.518,-52.085 -279.946,-131.51c-70.313,-96.356 -113.282,-200.522 -122.397,-324.218c-26.041,-140.625 -44.269,-342.45 -61.197,-605.469l-358.072,-5084.62c0,-70.313 0,-148.438 16.925,-218.75c16.928,-52.081 52.084,-105.469 104.169,-140.625c70.312,-35.156 148.437,-61.197 227.862,-70.313c131.513,-18.228 261.719,-26.04 393.232,-35.156l-0,-201.822l-1660.16,0l-2710.94,5714.84l-2726.56,-5714.84l-1705.73,0l0,201.822c174.481,0 350.263,44.272 507.813,122.397c122.396,79.428 183.593,201.822 183.593,385.416c0,272.137 -9.112,526.043 -26.04,772.137c-16.928,244.791 -26.041,473.956 -44.272,692.706c-52.081,850.263 -96.353,1524.74 -122.394,2015.62c-26.044,500 -52.084,885.419 -70.312,1157.55c-16.929,272.134 -35.157,455.728 -44.272,561.196c-7.813,104.169 -16.928,175.782 -26.041,218.75c-7.812,122.397 -35.156,244.794 -87.241,359.375c-35.156,88.544 -96.353,157.554 -174.478,210.938c-79.428,52.084 -174.481,87.241 -279.95,104.169c-131.509,18.228 -270.831,26.04 -402.343,26.04l-0,210.938l2351.56,-0l0,-201.825Z" style="fill:#007f48;fill-rule:nonzero;"/><path id="path10" d="M33419.1,5678.38c-96.354,-218.75 -227.866,-411.456 -384.116,-587.238c-183.594,-192.709 -376.3,-368.49 -595.05,-526.043c-227.866,-166.666 -489.584,-341.144 -760.419,-507.813c-559.894,-332.031 -988.281,-639.322 -1294.27,-920.572c-305.99,-279.947 -454.428,-587.24 -454.428,-928.384c-7.812,-298.178 122.397,-579.428 350.26,-772.138c227.865,-192.706 541.668,-298.175 925.781,-298.175c393.231,0 769.531,131.51 1084.64,359.375c332.032,244.791 595.05,587.238 734.375,972.657l192.707,-0l-192.707,-1437.5l-183.593,-0c-44.272,70.312 -131.513,113.281 -218.75,113.281c-88.544,-0 -175.782,-16.928 -253.907,-44.272c-87.24,-26.041 -183.593,-61.197 -296.875,-96.353c-113.281,-35.156 -244.793,-70.313 -402.343,-96.356c-183.594,-35.157 -375,-44.269 -558.594,-44.269c-253.906,-0 -516.928,35.156 -760.419,105.469c-235.675,70.312 -446.612,175.781 -647.134,315.103c-183.594,140.625 -341.147,316.406 -454.428,516.928c-113.282,218.75 -174.478,455.728 -166.666,701.822c0,411.459 148.438,779.947 446.616,1121.09c296.875,342.446 751.3,692.709 1363.28,1061.2c611.978,368.491 1067.71,701.825 1372.39,983.075c305.99,279.947 454.428,595.05 454.428,937.5c-0,192.707 -44.272,394.532 -131.51,569.01c-87.24,166.665 -200.521,307.29 -350.262,420.572c-148.438,114.584 -315.103,201.825 -498.697,263.022c-191.406,61.196 -384.116,87.24 -585.937,87.24c-437.5,9.113 -865.885,-140.625 -1205.73,-420.575c-350.262,-279.947 -585.937,-674.478 -708.334,-1183.59l-218.75,0l235.678,1726.56l191.406,-0c44.269,-79.425 131.51,-131.509 227.863,-122.394c79.428,9.113 157.553,26.041 227.866,52.081c113.281,35.157 253.906,70.313 420.571,105.469c174.482,44.272 332.032,79.428 480.469,104.169c148.438,26.041 296.875,35.156 446.616,35.156c287.759,0 576.822,-44.272 856.772,-131.512c263.018,-78.125 516.925,-209.635 734.375,-376.3c209.634,-166.669 393.228,-368.491 516.925,-605.469c139.325,-253.906 200.522,-533.856 200.522,-822.919c-10.416,-190.103 -53.385,-417.969 -140.625,-628.906Z" style="fill:#007f48;fill-rule:nonzero;"/><path id="path12" d="M41881.6,7852.88c-96.357,-16.928 -192.71,-52.084 -270.835,-105.469c-87.24,-52.084 -157.553,-131.512 -218.75,-218.75c-70.312,-113.281 -131.509,-235.678 -174.478,-368.49l-2368.49,-6294.28l-988.281,0l104.166,244.794l-2089.84,5723.97c-35.156,96.356 -78.125,201.825 -122.394,315.106c-44.272,105.469 -96.356,210.938 -148.437,316.406c-70.313,122.394 -165.366,227.863 -287.763,298.175c-113.281,70.313 -324.218,104.169 -630.206,104.169l0,218.75l2614.58,0l0,-218.75l-113.281,0c-104.166,0 -218.75,0 -324.219,-7.812c-104.165,-0 -209.634,-18.232 -315.103,-44.272c-87.24,-26.041 -174.478,-61.197 -244.79,-122.397c-70.313,-61.197 -105.469,-148.438 -96.357,-244.791c0,-44.272 9.116,-96.353 26.044,-140.625l44.269,-157.553l812.5,-2199.22l2343.75,0l717.45,1937.5c44.269,122.397 87.237,227.866 122.394,324.219c35.156,96.356 52.084,201.825 52.084,298.178c-0,166.666 -96.353,263.022 -279.947,298.178c-261.719,44.269 -532.553,52.082 -795.575,52.082l-104.166,-0l0,209.637l3102.87,0l0,-218.75c-122.397,35.156 -244.794,27.344 -367.187,0l-0,-0.003Zm-4598.97,-3384.12l962.24,-2638.02l996.094,2638.02l-1958.33,-0Z" style="fill:#007f48;fill-rule:nonzero;"/><path id="path14" d="M10592.5,11464.8c88.541,-0 175.781,16.928 253.906,35.156c61.197,16.928 113.282,44.272 148.438,88.541c44.269,52.084 70.312,113.281 78.125,174.481c18.228,97.656 26.04,184.894 18.228,281.25l-0,1263.02c-0,359.375 -105.469,630.209 -305.991,822.918c-200.518,194.01 -489.581,290.363 -865.884,290.363c-174.478,-0 -350.259,-26.041 -516.928,-79.425c-139.322,-44.272 -261.719,-122.397 -367.188,-218.75c-95.05,-96.356 -174.478,-218.75 -218.75,-350.263c-52.081,-148.437 -70.312,-298.175 -70.312,-446.612l-0,-1446.62c-0,-148.437 26.044,-253.906 87.24,-307.29c61.197,-61.2 166.666,-87.241 341.147,-87.241l26.041,-0l-0,-96.353l-1308.59,-0l0,96.353c69.01,-0 139.322,-0 209.635,16.928c52.084,9.113 96.356,26.041 140.625,52.081c35.156,26.044 61.2,70.313 70.312,113.282c16.928,61.2 16.928,122.396 16.928,184.896l0,1524.74c-7.812,192.706 35.156,385.416 113.281,570.313c70.313,157.55 183.594,298.175 315.104,403.643c140.625,113.282 296.875,192.71 471.356,244.794c384.112,104.166 787.759,104.166 1171.88,0c174.478,-52.084 341.144,-131.512 480.469,-244.794c140.625,-114.581 253.906,-253.906 324.218,-420.571c78.125,-184.897 122.394,-394.532 122.394,-596.354l0,-1402.34c0,-157.553 35.156,-272.138 105.469,-350.263c70.312,-70.312 191.406,-113.281 358.075,-113.281l-0,-97.656l-1205.73,-0l-0,97.656l6.512,-0l0,-2.603Z" style="fill:#007f48;fill-rule:nonzero;"/><path id="path16" d="M15226.6,11464.8c79.428,-0 166.668,7.812 244.793,16.928c52.082,9.112 105.469,26.04 157.55,52.081c35.157,26.044 70.313,61.2 79.428,104.169c16.929,61.197 26.041,114.581 26.041,175.781l0,2087.24l-2412.76,-2542.97l-804.688,-0l0,96.356c79.428,0 166.666,16.925 244.791,35.156c70.312,16.925 131.512,52.082 183.594,87.238l-0,2559.9c-0,131.509 -35.157,218.75 -105.469,272.134c-70.313,52.085 -183.594,70.313 -332.031,70.313l-0,96.356l1188.8,-0l-0,-96.356c-87.241,-0 -166.666,-0 -253.907,-16.925c-61.196,-9.116 -113.281,-26.044 -157.553,-61.2c-35.156,-35.157 -70.312,-78.125 -79.425,-122.394c-16.928,-70.313 -26.043,-148.438 -26.043,-218.75l-0,-2252.61l2657.55,2813.8l131.509,-0l0,-2910.16c0,-105.469 35.156,-175.782 105.469,-210.938c113.281,-35.156 235.678,-52.084 358.075,-44.272l-0,-96.353l-1196.62,0l0,105.469l-9.115,-0Z" style="fill:#007f48;fill-rule:nonzero;"/><path id="path18" d="M17184.7,11464.8c157.553,7.812 263.021,44.272 315.103,96.353c52.084,52.084 78.125,140.625 78.125,263.022l-0,2244.79c-0,166.669 -26.041,272.138 -78.125,332.032c-52.082,61.2 -157.55,88.543 -305.988,97.656l0,96.356l1250,0l0,-96.356c-165.365,-0 -278.647,-26.041 -341.147,-79.425c-61.197,-52.085 -96.353,-157.553 -96.353,-307.294l0,-2226.56c0,-157.55 26.041,-263.019 88.541,-324.219c61.197,-61.197 174.478,-88.541 348.959,-88.541l0,-96.353l-1250,0l-9.115,88.541Z" style="fill:#007f48;fill-rule:nonzero;"/><path id="path20" d="M21415.3,11464.8c122.396,-9.116 253.906,7.812 376.303,52.084c70.312,26.041 104.165,88.541 104.165,157.55c0,52.085 -7.812,105.469 -26.04,148.438c-18.232,61.2 -44.272,122.397 -70.313,201.825l-804.687,2111.98l-927.085,-2322.92c-16.928,-44.272 -26.04,-87.241 -26.04,-131.512c-0,-79.425 52.081,-148.438 131.509,-166.666c122.397,-35.156 253.906,-61.197 384.116,-61.197l-0,-96.356l-1407.55,-0l-0,96.356c70.312,0 131.509,9.113 201.821,16.925c44.272,9.116 87.241,35.156 131.513,70.313c35.156,35.156 70.312,79.428 96.353,122.397c26.041,52.084 52.084,114.584 87.241,194.009l1109.38,2804.69l253.906,0l1015.62,-2662.76c35.156,-88.541 70.312,-184.897 113.281,-263.022c35.156,-61.197 70.313,-122.394 122.394,-166.665c44.272,-44.272 87.241,-70.313 140.625,-87.241c61.2,-16.925 122.397,-26.041 182.294,-26.041l-0,-96.353l-1188.8,0l-0,104.166Z" style="fill:#007f48;fill-rule:nonzero;"/><path id="path22" d="M25708.4,14261.7c-79.428,96.353 -200.521,140.625 -359.374,140.625l-847.657,-0c-70.312,9.115 -140.625,-16.928 -201.822,-52.085c-44.271,-35.156 -61.2,-105.468 -61.2,-220.05l0,-1121.09l882.813,-0c113.281,-0 192.709,26.04 244.794,87.237c44.268,61.2 78.125,166.669 96.353,324.219l95.053,-0l-0,-990.885l-95.053,0c-18.228,157.554 -44.272,263.022 -96.353,316.407c-52.085,52.084 -122.397,78.125 -192.71,78.125l-934.897,-0l0,-1270.84l1092.45,0c96.353,-9.112 192.707,44.272 244.791,122.397c61.197,79.428 95.053,218.75 122.397,411.46l96.353,-0l-44.272,-718.75l-2464.84,-0l0,97.656l70.313,-0c70.312,-0 140.625,-0 200.522,16.925c52.084,9.116 104.165,26.044 140.625,52.084c35.156,26.041 70.312,70.313 78.125,122.397c18.228,70.313 26.04,140.625 26.04,209.635l0,2226.56c0,79.428 -7.812,148.438 -35.156,218.75c-18.228,52.084 -52.081,96.353 -96.353,122.397c-52.084,26.041 -105.469,44.269 -157.553,52.081c-79.425,9.116 -157.55,9.116 -227.863,9.116l-96.356,-0l0,96.353l2718.75,-0l79.428,-772.134l-88.54,-0c-22.138,161.459 -92.45,308.593 -188.804,441.406Z" style="fill:#007f48;fill-rule:nonzero;"/><path id="path24" d="M29328.1,14050.8c0,0 -630.206,-955.728 -630.206,-955.728c192.706,-61.2 367.187,-174.481 498.697,-332.031c113.281,-148.438 175.781,-324.219 175.781,-507.813c-0,-122.397 -26.041,-236.981 -79.428,-350.262c-61.197,-114.581 -140.625,-218.75 -244.791,-298.175c-122.397,-96.356 -263.022,-166.669 -411.459,-201.825c-200.519,-52.081 -411.457,-79.425 -621.094,-70.313c-200.519,0 -411.456,9.116 -630.206,16.929c-218.75,9.115 -454.428,26.04 -699.219,44.271l-0,97.657c183.594,-0 315.103,26.04 384.112,70.312c70.313,44.269 113.282,140.625 113.282,272.135l-0,2235.68c-0,79.425 -7.813,157.55 -26.041,235.675c-7.812,52.084 -44.272,96.356 -78.125,131.512c-44.272,35.156 -96.353,52.081 -157.553,61.197c-79.425,7.813 -157.55,16.928 -227.863,16.928l0,96.353l1467.45,0l0,-96.353c-95.053,0 -191.406,-9.115 -278.647,-16.928c-61.196,-9.116 -122.393,-35.156 -166.665,-79.428c-44.272,-44.269 -70.313,-88.541 -79.428,-148.438c-16.925,-79.425 -16.925,-166.665 -16.925,-244.79l-0,-781.25l682.29,-0c18.228,18.228 35.157,44.272 52.085,61.197c26.04,35.156 44.268,70.312 79.425,113.281c61.2,88.544 122.397,192.709 191.406,307.294c70.312,113.281 140.625,218.75 200.522,315.103c105.469,166.665 235.678,307.29 385.415,429.687c122.397,87.241 253.907,157.553 402.344,183.594c87.241,16.928 183.594,16.928 279.95,16.928l0,-96.356c-96.356,-16.925 -183.594,-70.313 -263.022,-131.509c-110.678,-122.397 -214.843,-253.907 -302.084,-394.532Zm-910.156,-972.656c-26.041,9.116 -61.197,16.928 -95.05,26.041c-44.272,9.115 -79.428,16.928 -122.397,16.928c-44.272,9.115 -104.166,9.115 -166.666,9.115l-402.343,0l-0,-1709.64l166.665,-0c139.322,-0 278.647,9.116 419.272,26.044c79.425,9.112 157.55,35.156 235.675,70.312c140.625,61.197 253.906,166.666 332.031,298.175c79.428,140.625 113.282,298.178 113.282,455.731c-0,183.594 -35.157,359.375 -122.394,516.925c-85.938,140.625 -208.335,246.094 -358.075,290.366Z" style="fill:#007f48;fill-rule:nonzero;"/><path id="path26" d="M32397.2,13217.4c-79.429,-87.238 -175.782,-166.666 -272.138,-244.791c-113.281,-78.125 -227.862,-157.553 -348.956,-227.866c-209.638,-122.394 -402.344,-263.019 -585.938,-420.572c-131.512,-105.468 -200.522,-263.022 -209.637,-429.687c-0,-131.51 52.084,-263.022 157.553,-350.26c122.397,-96.356 270.834,-140.625 419.272,-131.512c175.781,0 350.259,61.2 489.581,166.669c148.438,113.281 270.834,272.134 332.031,446.612l87.241,0l-87.241,-657.55l-78.125,0c-16.925,35.156 -61.197,52.082 -96.353,52.082c-44.272,-0 -79.428,-7.813 -113.281,-16.926c-44.272,-16.928 -87.241,-26.043 -140.625,-44.271c-53.384,-18.229 -113.281,-26.041 -183.594,-44.272c-87.24,-18.228 -166.665,-18.228 -253.906,-18.228c-113.281,-0 -235.678,18.228 -350.259,52.084c-104.169,35.156 -200.522,79.425 -287.763,148.437c-87.237,61.197 -157.55,140.625 -200.519,236.979c-52.084,96.353 -79.428,209.634 -79.428,324.218c0,194.01 70.313,377.603 200.522,516.928c183.594,194.01 385.416,359.375 621.094,492.188c218.75,131.509 428.384,279.947 621.094,446.613c122.393,105.468 200.518,263.021 200.518,429.687c0,87.241 -16.925,175.781 -61.197,263.022c-35.156,79.428 -87.24,140.625 -157.553,192.709c-70.312,52.082 -140.625,97.657 -227.862,122.394c-87.241,26.044 -174.481,44.272 -263.022,44.272c-200.522,-0 -393.228,-70.313 -541.666,-192.709c-166.668,-140.625 -279.95,-324.219 -324.218,-542.969l-96.357,-0l105.469,789.062l87.241,0c16.928,-35.156 61.197,-61.197 104.165,-61.197c35.157,0 70.313,9.116 105.469,26.041c52.084,16.928 113.281,35.156 191.406,52.084c70.313,16.929 148.438,35.157 218.75,52.085c70.313,7.812 131.513,16.925 200.522,16.925c131.51,-0 263.022,-16.925 384.116,-61.197c122.394,-35.156 235.675,-97.656 332.031,-175.781c96.353,-79.428 174.478,-166.666 235.675,-281.25c61.2,-113.282 96.356,-244.791 88.544,-377.603c-0,-104.169 -18.231,-209.638 -61.2,-305.991c-31.25,-110.678 -92.447,-207.031 -161.456,-286.459Z" style="fill:#007f48;fill-rule:nonzero;"/><path id="path28" d="M33365.9,11464.8c157.55,7.812 263.018,44.272 315.103,96.353c52.084,78.125 79.428,166.669 79.428,263.022l-0,2244.79c-0,166.669 -26.044,272.138 -79.428,332.032c-52.085,61.2 -157.554,88.543 -305.991,97.656l0,96.356l1240.89,0l0,-96.356c-165.365,-0 -278.646,-26.041 -341.146,-79.425c-61.197,-52.085 -95.054,-157.553 -95.054,-307.294l0,-2226.56c0,-157.55 26.044,-263.019 87.241,-324.219c61.197,-61.197 174.478,-88.541 348.959,-88.541l0,-96.353l-1250,0l0.001,88.541Z" style="fill:#007f48;fill-rule:nonzero;"/><path id="path30" d="M38331.9,11290.4c-9.112,26.041 -26.041,52.081 -61.197,61.197c-26.04,9.115 -61.197,16.928 -87.24,16.928l-2483.07,-0c-35.157,-0 -61.197,-7.813 -96.353,-16.928c-35.157,-7.813 -52.085,-35.156 -61.2,-61.197l-96.354,-0l-78.125,841.144l95.054,-0c35.156,-210.938 79.425,-368.488 131.509,-446.613c44.272,-79.428 140.625,-131.512 227.866,-122.397l899.737,0l0,2576.82c0,70.313 -7.812,131.513 -26.041,192.71c-18.228,44.271 -44.271,79.428 -88.54,105.468c-44.272,26.041 -95.053,44.272 -148.438,52.085c-70.312,9.112 -140.625,9.112 -218.75,9.112l-113.281,0l0,96.356l1618.49,0.001l-0,-96.357l-113.282,0c-70.312,0 -148.437,0 -218.75,-9.112c-52.081,-9.116 -104.165,-16.928 -148.437,-52.085c-44.269,-26.04 -70.313,-61.197 -87.238,-105.468c-18.231,-61.197 -26.043,-131.51 -26.043,-192.71l-0,-2576.82l899.74,0c96.353,-9.115 183.594,44.272 227.866,122.397c52.081,78.125 96.353,227.863 140.625,446.613l87.237,-0l-78.125,-841.144l-97.656,-0Z" style="fill:#007f48;fill-rule:nonzero;"/><path id="path32" d="M41915.3,14436.2c-35.157,-26.04 -70.313,-61.196 -95.054,-96.353c-35.156,-52.084 -61.196,-105.468 -79.425,-166.665l-1075.52,-2876.3l-445.312,-0l44.272,114.584l-953.125,2621.09c-16.928,44.269 -35.156,96.353 -52.085,140.625c-18.228,52.081 -44.271,96.353 -70.312,140.625c-35.156,52.081 -79.428,105.468 -131.509,140.625c-52.085,35.156 -148.438,52.081 -287.763,52.081l0,96.356l1179.69,0l-0,-96.356l-200.519,0c-52.085,0 -96.356,-7.813 -140.625,-16.925c-44.272,-9.116 -78.125,-26.044 -113.281,-61.2c-26.044,-26.041 -44.272,-70.313 -44.272,-113.281c-0,-16.925 -0,-44.269 9.115,-61.197c7.813,-26.041 16.925,-52.084 16.925,-70.313l367.188,-1007.81l1058.59,-0l324.218,885.416c16.929,61.199 35.157,105.468 52.085,148.437c18.228,44.272 26.04,88.544 26.04,140.625c0,70.313 -52.081,131.512 -122.393,140.625c-122.397,16.928 -244.794,26.044 -359.375,26.044l-44.272,-0l-0,96.353l1407.55,-0l-0,-96.353c-52.085,-0 -113.281,-0 -166.669,-9.116c-24.737,-27.344 -58.594,-44.272 -104.166,-71.616Zm-1957.03,-1507.81l437.5,-1209.63l454.428,1209.63l-891.928,-0Z" style="fill:#007f48;fill-rule:nonzero;"/><path id="path34" d="M40525.9,10710.9c113.281,70.313 227.862,157.554 367.187,244.791l70.313,0l-437.5,-613.281c-131.513,-183.594 -253.907,-272.135 -358.075,-272.135c-44.269,0.001 -87.238,9.116 -113.282,44.272c-26.04,26.041 -44.268,70.313 -44.268,105.469c-0,52.081 26.04,105.469 61.196,140.625c52.085,61.197 113.282,105.469 183.594,157.55c70.313,52.085 166.666,122.397 270.835,192.71Z" style="fill:#007f48;fill-rule:nonzero;"/></svg>