<?xml version="1.0" encoding="utf-8"?>
<!-- Generator: Adobe Illustrator 26.2.1, SVG Export Plug-In . SVG Version: 6.00 Build 0)  -->
<svg version="1.1" id="Layer_1" xmlns="http://www.w3.org/2000/svg" xmlns:xlink="http://www.w3.org/1999/xlink" x="0px" y="0px"
	 viewBox="0 0 2000 335" style="enable-background:new 0 0 2000 335;" xml:space="preserve">
<style type="text/css">
	.st0{fill:#FF6432;}
</style>
<g>
	<g>
		<path class="st0" d="M288.76,25.73H24.78c-3.06,0-5.35,1.01-7.04,2.74C16.01,30.2,15,32.45,15,35.51v263.98
			c0,3.1,1.01,5.32,2.74,7.08c1.69,1.69,3.98,2.7,7.04,2.7h263.98c3.1,0,5.35-1.01,7.07-2.7c1.69-1.76,2.7-3.98,2.7-7.08V35.51
			c0-3.06-1.01-5.31-2.7-7.04C294.1,26.74,291.86,25.73,288.76,25.73z M215.95,224.34h-22.06l0.68-75.09h-1.96l-25.06,75.09h-21.58
			l-25.06-75.09h-1.96l0.68,75.09H97.58V110.7h28.09l29.75,83.07h2.8l29.62-83.07h28.09V224.34z M488.96,147.88
			c0,15.38-10.82,17.5-22.52,17.5h-24.47v-35h24.47C477.59,130.38,488.96,132.47,488.96,147.88z M465.4,17.58
			c-123.29,0-149.92,26.63-149.92,149.92c0,123.32,26.63,149.92,149.92,149.92s149.92-26.59,149.92-149.92
			C615.31,44.21,588.69,17.58,465.4,17.58z M509.92,207.17l1.01,17.14h-22.59l-1.56-19.59c-0.55-9.42-5.93-19.49-18.06-19.49h-26.76
			v39.08h-22.62V110.7h51.17c25.23,0,40.9,13.36,40.9,34.9c0,7.76-1.89,14.31-5.51,19.39c-2.18,3.2-8.28,8.08-14.93,8.38v2.8
			C502.49,177.7,508.81,188.78,509.92,207.17z M779.31,17.58c-82.81,0-149.92,67.14-149.92,149.92
			c0,82.81,67.1,149.92,149.92,149.92s149.92-67.1,149.92-149.92C929.22,84.72,862.12,17.58,779.31,17.58z M826.73,184.32
			c0,19.95-8.24,43.7-47.42,43.7s-47.42-23.76-47.42-43.7V110.7h22.62v73.62c0,16.26,7.89,23.83,24.8,23.83
			c17.27,0,24.96-7.33,24.96-23.83V110.7h22.45V184.32z"/>
	</g>
	<g>
		<g>
			<path d="M1049.03,53.01h20.07l26.07,71.69h0.26l25.94-71.69h20.07v93.19h-15.12V75.56h-0.26l-24.63,70.64h-12.38l-24.63-70.64
				h-0.26v70.64h-15.12V53.01z"/>
			<path d="M1186.42,150.37c-3.78,10.3-8.08,18.51-20.85,18.51c-3.91,0-7.17-0.65-9.78-1.3v-10.43h1.17
				c5.74,0.78,10.03,0.39,13.03-3.26c2.48-3,4.3-8.21,1.83-14.47l-24.11-59.83h14.73l18.64,50.96h0.26l17.07-50.96h14.6
				L1186.42,150.37z"/>
			<path d="M1232.05,53.01v53.31l27.11-26.72h16.81l-25.28,24.76l28.02,41.84h-16.42l-20.98-32.84l-9.26,8.73v24.11h-13.69V53.01
				H1232.05z"/>
			<path d="M1309.48,148.16c-20.85,0-33.49-14.47-33.49-35.19c0-20.72,12.64-35.19,33.49-35.19c20.86,0,33.5,14.47,33.5,35.19
				C1342.98,133.69,1330.34,148.16,1309.48,148.16z M1309.48,136.95c13.04,0,19.82-10.3,19.82-23.98c0-13.82-6.78-23.98-19.82-23.98
				c-13.03,0-19.81,10.17-19.81,23.98C1289.67,126.65,1296.45,136.95,1309.48,136.95z"/>
			<path d="M1365.28,53.01v93.19h-13.82V53.01H1365.28z"/>
			<path d="M1405.56,88.59c-10.95,0-14.99,3.39-15.64,11.99h-13.3c0.65-12.78,8.86-22.81,28.94-22.81c14.73,0,25.68,5.6,25.68,23.33
				v31.67c0,4.69,1.04,7.17,6.38,6.65v6.51c-3.13,1.17-5.34,1.44-7.95,1.44c-7.3,0-10.69-2.61-11.99-9.12h-0.26
				c-4.17,5.87-11.73,9.91-22.03,9.91c-13.56,0-21.9-7.82-21.9-19.03c0-14.6,10.81-19.16,27.5-22.42
				c10.3-1.96,16.56-3.26,16.56-9.65C1417.55,92.24,1414.68,88.59,1405.56,88.59z M1417.55,120.91v-10.03
				c-2.22,1.56-7.56,3.13-13.95,4.43c-11.34,2.48-16.3,5.74-16.3,12.51c0,6.13,3.65,9.51,11.08,9.51
				C1409.73,137.34,1417.55,131.73,1417.55,120.91z"/>
			<path d="M1498.63,127.43c0,12.77-10.95,20.72-27.11,20.72c-21.51,0-30.76-10.04-31.41-24.11h13.29
				c0.66,7.17,3.78,13.3,17.86,13.3c9.52,0,13.55-4.69,13.55-8.86c0-8.34-7.95-8.99-17.72-11.34c-10.56-2.48-24.89-4.56-24.89-19.68
				c0-10.95,9.64-19.68,26.33-19.68c18.12,0,26.72,9.77,27.63,21.37h-13.29c-0.91-5.21-3.52-10.56-14.21-10.56
				c-8.21,0-12.64,3.13-12.64,7.82c0,6.78,7.43,7.3,17.07,9.52C1485.33,108.8,1498.63,111.53,1498.63,127.43z"/>
			<path d="M1531.36,53.01h39.75c19.16,0,31.54,9.77,31.54,26.72c0,13.03-6.65,20.59-17.34,23.2v0.26
				c21.51,4.04,13.69,40.53,18.64,42.1v0.91h-16.3c-4.3-3.91,4.43-35.97-17.99-35.97h-22.81v35.97h-15.51V53.01z M1546.87,96.93
				h20.99c9.51,0,19.42-1.83,19.42-15.38c0-13.43-9.91-15.38-19.42-15.38h-20.99V96.93z"/>
			<path d="M1642.03,148.16c-20.85,0-33.5-14.47-33.5-35.19c0-20.72,12.64-35.19,33.5-35.19c20.85,0,33.5,14.47,33.5,35.19
				C1675.53,133.69,1662.88,148.16,1642.03,148.16z M1642.03,136.95c13.04,0,19.81-10.3,19.81-23.98c0-13.82-6.78-23.98-19.81-23.98
				c-13.03,0-19.81,10.17-19.81,23.98C1622.22,126.65,1629,136.95,1642.03,136.95z"/>
			<path d="M1777.59,100.19v46.01h-13.82v-42.1c0-8.99-1.83-14.73-11.21-14.73c-9.26,0-14.99,6.39-14.99,16.29v40.53h-13.82v-42.1
				c0-8.99-1.82-14.73-11.34-14.73c-9.12,0-14.99,6.39-14.99,16.29v40.53h-13.69V79.6h13.69v8.6h0.26
				c3.52-5.21,9.77-10.43,19.81-10.43c9.38,0,14.99,4.3,17.72,11.47h0.26c4.95-6.39,11.47-11.47,21.77-11.47
				C1770.68,77.77,1777.59,85.85,1777.59,100.19z"/>
			<path d="M1835.48,125.87h13.69c-3.39,12.64-13.29,22.29-30.37,22.29c-20.72,0-33.37-14.34-33.37-35.19
				c0-21.64,12.64-35.19,32.71-35.19c21.51,0,32.07,14.99,32.07,38.71h-51.09c0,11.21,7.17,20.46,19.29,20.46
				C1829.74,136.95,1834.3,129.91,1835.48,125.87z M1799.11,106.32h37.41c0-10.3-7.3-17.73-18.38-17.73
				C1807.07,88.59,1799.11,96.02,1799.11,106.32z"/>
			<path d="M1895.97,78.42v12.9h-0.26c-13.16-2.22-23.72,6.65-23.72,20.85v34.02h-13.69V79.6h13.69v12.51h0.26
				c3.52-8.34,8.99-14.08,17.72-14.08C1892.32,78.03,1894.01,78.17,1895.97,78.42z"/>
			<path d="M1903.4,61.09c0-4.69,3.91-7.17,7.69-7.17c4.04,0,7.82,2.48,7.82,7.17c0,4.69-3.78,7.3-7.82,7.3
				C1907.31,68.39,1903.4,65.78,1903.4,61.09z M1918,79.6v66.6h-13.69V79.6H1918z"/>
			<path d="M1985,127.43c0,12.77-10.95,20.72-27.11,20.72c-21.51,0-30.76-10.04-31.41-24.11h13.29c0.65,7.17,3.78,13.3,17.86,13.3
				c9.51,0,13.55-4.69,13.55-8.86c0-8.34-7.95-8.99-17.73-11.34c-10.56-2.48-24.89-4.56-24.89-19.68c0-10.95,9.65-19.68,26.33-19.68
				c18.12,0,26.72,9.77,27.63,21.37h-13.29c-0.91-5.21-3.52-10.56-14.21-10.56c-8.21,0-12.64,3.13-12.64,7.82
				c0,6.78,7.43,7.3,17.07,9.52C1971.71,108.8,1985,111.53,1985,127.43z"/>
			<path d="M1084.48,283.92c-25.94,0-36.76-13.42-36.76-33.76v-61.39h15.51v61.39c0,14.08,7.04,20.46,21.24,20.46
				c14.34,0,21.38-6.39,21.38-20.46v-61.39h15.38v61.39C1121.23,270.49,1110.42,283.92,1084.48,283.92z"/>
			<path d="M1191.24,235.95v46.01h-13.82v-42.1c0-8.99-3.78-14.73-13.16-14.73c-10.56,0-17.34,6.39-17.34,16.29v40.53h-13.69v-66.6
				h13.69v8.6h0.26c3.52-5.21,10.43-10.43,21.9-10.43C1181.46,213.53,1191.24,220.7,1191.24,235.95z"/>
			<path d="M1202.46,196.85c0-4.69,3.91-7.17,7.69-7.17c4.04,0,7.82,2.48,7.82,7.17c0,4.69-3.78,7.3-7.82,7.3
				C1206.37,204.15,1202.46,201.54,1202.46,196.85z M1217.06,215.36v66.6h-13.69v-66.6H1217.06z"/>
			<path d="M1237.65,215.36l16.81,52.14h0.13l16.81-52.14h14.47l-23.59,66.6h-15.51l-23.59-66.6H1237.65z"/>
			<path d="M1335.94,261.63h13.69c-3.39,12.64-13.3,22.29-30.37,22.29c-20.73,0-33.37-14.34-33.37-35.19
				c0-21.64,12.64-35.19,32.71-35.19c21.51,0,32.06,14.99,32.06,38.71h-51.09c0,11.21,7.17,20.46,19.29,20.46
				C1330.21,272.71,1334.77,265.67,1335.94,261.63z M1299.58,242.08h37.41c0-10.3-7.3-17.73-18.38-17.73
				C1307.53,224.35,1299.58,231.78,1299.58,242.08z"/>
			<path d="M1396.43,214.18v12.9h-0.26c-13.16-2.22-23.72,6.65-23.72,20.85v34.02h-13.69v-66.6h13.69v12.51h0.26
				c3.52-8.34,8.99-14.08,17.72-14.08C1392.78,213.79,1394.47,213.92,1396.43,214.18z"/>
			<path d="M1458.21,263.19c0,12.77-10.95,20.72-27.11,20.72c-21.51,0-30.76-10.04-31.41-24.11h13.29
				c0.65,7.17,3.78,13.3,17.85,13.3c9.52,0,13.56-4.69,13.56-8.86c0-8.34-7.95-8.99-17.73-11.34c-10.56-2.48-24.89-4.56-24.89-19.68
				c0-10.95,9.64-19.68,26.33-19.68c18.12,0,26.72,9.77,27.63,21.37h-13.29c-0.91-5.21-3.52-10.56-14.2-10.56
				c-8.21,0-12.64,3.13-12.64,7.82c0,6.78,7.43,7.3,17.07,9.52C1444.92,244.55,1458.21,247.29,1458.21,263.19z"/>
			<path d="M1466.04,196.85c0-4.69,3.91-7.17,7.69-7.17c4.04,0,7.82,2.48,7.82,7.17c0,4.69-3.78,7.3-7.82,7.3
				C1469.96,204.15,1466.04,201.54,1466.04,196.85z M1480.64,215.36v66.6h-13.69v-66.6H1480.64z"/>
			<path d="M1512.58,226.57v36.1c0,7.56,3.65,8.47,12.51,7.95v11.21c-2.74,0.65-5.74,1.04-9.39,1.04
				c-10.95,0-16.94-4.95-16.94-19.03v-37.28h-9.65v-11.21h9.65v-20.98h13.81v20.98h12.51v11.21H1512.58z"/>
			<path d="M1566.54,286.13c-3.78,10.3-8.08,18.51-20.85,18.51c-3.91,0-7.17-0.65-9.78-1.3v-10.43h1.17
				c5.74,0.78,10.03,0.39,13.03-3.26c2.48-3,4.3-8.21,1.83-14.47l-24.11-59.83h14.73l18.64,50.96h0.26l17.07-50.96h14.6
				L1566.54,286.13z"/>
		</g>
	</g>
</g>
</svg>
