<svg xmlns="http://www.w3.org/2000/svg" viewBox="0 0 820 600">
<rect width="820" height="600" fill="#f0f4f8"/>
<path d="M483.001,24.443L484.605,16.217L490.835,15.387L496.18,23.802L510.152,40.869L499.478,49.451L497.111,64.721L493.401,68.472L491.385,84.385L486.269,85.107L477.137,73.518L480.985,66.519L474.633,60.705L466.372,42.81L463.073,24.963L474.633,16.341L476.954,24.764ZM550.696,192.368L543.473,197.194L540.052,198.282L541.839,189.827L536.403,184.902L529.821,189.099L527.729,197.96L523.682,203.178L519.132,200.343L513.604,200.921L508.885,194.64L506.335,197.799L503.708,198.282L503.082,205.983L495.096,204.123L493.966,210.509L489.888,210.471L487.094,218.423L482.849,230.337L476.267,244.722L477.809,248.105L476.328,251.971L472.129,251.807L469.38,260.753L469.639,272.93L472.342,277.451L470.937,287.636L467.41,293.412L465.547,298.186L462.691,293.102L454.323,302.607L448.658,304.487L442.794,300.371L441.282,291.486L439.938,271.407L443.847,265.523L455.041,257.67L463.424,247.705L471.182,233.607L481.383,212.762L488.483,204.182L500.135,189.203L509.45,183.757L516.429,184.415L522.888,173.835L530.615,174.409L538.235,171.795L551.505,181.258L546.038,184.627ZM535.028,15.221L528.737,28.101L516.429,30.848L503.922,26.994L503.158,20.446L497.081,19.998L492.438,8.69L505.541,1.543L511.695,7.706L515.986,0L526.706,6.46ZM523.636,64.176L514.169,72.266L506.686,67.699L509.603,62.532L507.052,55.955L515.833,51.722L517.513,59.561Z" fill="#dbe9f4" stroke="#a8c4d8" stroke-width="0.8"/>
<path d="M199.64,591.069L197.135,594.955L195.837,598.089L194.203,599.698L192.172,600L191.592,598.807L190.645,598.628L189.332,599.777L187.484,598.901L188.568,597.118L188.935,595.177L189.683,593.351L188.019,590.825L187.683,587.915L189.882,584.252L191.332,584.721L194.448,585.731L198.937,589.327ZM445.008,366.598L447.008,368.305L453.117,369.501L450.979,373.893L450.444,378.409L449.268,379.483L447.344,378.909L447.482,380.5L444.382,383.996L444.305,386.781L446.336,385.824L447.787,388.511L447.619,390.232L448.871,392.507L447.39,394.34L448.49,398.952L450.795,399.703L450.307,402.254L446.459,405.555L438.09,403.977L431.921,405.869L431.432,409.342L426.515,410.09L421.735,407.488L420.193,408.728L412.39,406.105L410.695,403.839L412.894,400.322L413.703,388.366L409.32,381.895L406.19,378.728L399.715,376.304L399.288,371.65L404.785,370.244L411.901,371.9L410.557,364.548L414.574,367.359L424.438,362.238L425.721,356.77L429.432,355.411L430.043,357.771L432.013,357.885L433.983,360.565L436.945,363.69L439.129,363.177L442.839,366.167L443.786,366.741ZM455.865,408.455L458.599,406.243L459.316,411.186L457.912,415.576L455.987,414.426L455.01,410.586Z" fill="#dbe9f4" stroke="#a8c4d8" stroke-width="0.8"/>
<path d="M465.547,298.186L467.41,293.412L470.937,287.636L472.342,277.451L469.639,272.93L469.38,260.753L472.129,251.807L476.328,251.971L477.809,248.105L476.267,244.722L482.849,230.337L487.094,218.423L489.888,210.471L493.966,210.509L495.096,204.123L503.082,205.983L503.708,198.282L506.335,197.799L512,203.553L518.612,211.351L518.734,228.194L520.155,232.286L512.855,235.218L508.747,242.335L509.404,248.404L502.67,256.188L494.469,264.288L491.385,277.032L494.408,283.191L498.455,287.953L494.561,297.38L490.148,299.294L488.529,312.693L486.132,319.913L480.985,319.178L478.573,325.157L473.671,325.498L472.312,318.364L468.769,309.548Z" fill="#dbe9f4" stroke="#a8c4d8" stroke-width="0.8"/>
<path d="M538.281,319.411L542.755,321.326L543.351,323.19L545.58,322.298L549.734,324.093L550.146,327.588L549.23,329.575L551.887,334.358L553.613,335.68L553.368,336.983L556.224,338.244L557.446,340.139L555.796,341.686L552.376,341.447L551.551,342.105L552.559,344.438L553.597,348.9L549.948,349.309L548.65,350.811L548.375,354.253L546.68,353.598L542.862,353.92L541.747,352.329L540.159,353.517L538.556,352.525L535.227,352.387L530.493,350.753L526.202,350.206L522.919,350.369L520.597,352.225L518.566,352.491L518.475,349.437L517.177,346.224L519.712,344.794L519.742,341.997L518.566,339.296L518.383,336.131L522.476,336.18L527.088,333.45L528.065,329.326L531.547,326.947L531.149,323.61L533.73,322.336Z" fill="#dbe9f4" stroke="#a8c4d8" stroke-width="0.8"/>
<path d="M553.597,348.9L555.185,349.169L556.254,347.6L557.537,347.952L561.935,347.283L564.653,351.182L563.584,352.572L563.936,354.678L567.326,355.011L568.837,357.93L568.746,359.245L574.121,361.588L577.374,360.531L580,363.635L582.474,363.568L588.735,365.702L588.781,367.612L587.055,371.008L588.002,374.541L587.33,376.657L583.222,377.117L581.039,378.877L580.901,381.652L577.511,382.158L574.686,384.163L570.716,384.488L567.066,386.781L567.28,390.057L566.638,389.872L566.089,388.666L564.73,388.428L561.706,387.113L560.591,388.624L560.011,387.963L553.414,386.417L553.124,384.111L549.199,384.874L547.626,388.252L544.343,392.742L542.419,391.709L540.419,392.68L538.525,391.566L539.594,390.91L540.342,388.821L541.503,386.874L541.198,385.772L542.083,385.282L542.496,386.126L545,386.313L546.13,385.855L545.336,385.229L545.626,384.31L544.145,382.737L543.534,380.13L541.992,379.1L542.297,376.968L540.388,375.262L538.632,375.025L535.517,373.039L532.692,373.667L531.684,374.605L529.882,374.605L528.828,376.1L525.698,376.7L524.247,377.673L522.277,376.132L519.559,376.1L516.933,375.402L515.1,376.764L514.81,375.058L512.443,373.321L513.283,370.735L514.459,369.052L515.375,369.435L514.291,366.509L518.139,361.037L520.246,360.261L520.689,358.384L518.566,352.491L520.597,352.225L522.919,350.369L526.202,350.206L530.493,350.753L535.227,352.387L538.556,352.525L540.159,353.517L541.747,352.329L542.862,353.92L546.68,353.598L548.375,354.253L548.65,350.811L549.948,349.309Z" fill="#dbe9f4" stroke="#a8c4d8" stroke-width="0.8"/>
<path d="M518.383,336.131L518.566,339.296L519.742,341.997L519.712,344.794L517.177,346.224L518.475,349.437L518.566,352.491L520.689,358.384L520.246,360.261L518.139,361.037L514.291,366.509L515.375,369.435L514.459,369.052L510.427,366.554L507.373,367.48L505.373,366.808L502.853,368.206L500.715,365.89L498.974,366.785L498.73,366.388L496.791,363.155L493.63,362.752L493.233,360.677L490.316,359.934L489.69,361.655L487.384,360.283L487.643,358.441L484.482,357.862L482.467,355.686L480.726,351.345L481.062,348.97L480.008,345.255L478.466,342.761L479.642,340.872L478.664,337.25L481.551,335.13L488.178,331.772L493.523,329.289L497.753,330.533L498.073,332.316L502.166,332.403L507.388,333.228L515.192,333.117L517.36,333.904Z" fill="#dbe9f4" stroke="#a8c4d8" stroke-width="0.8"/>
<path d="M490.789,375.23L490.469,377.812L488.086,377.833L488.896,379.196L487.491,383.209L486.681,384.258L482.971,384.404L480.833,385.803L477.336,385.334L471.258,383.734L470.311,381.578L466.127,382.653L465.639,383.839L463.058,382.957L460.889,382.789L458.981,381.652L459.622,380.119L459.469,379.015L460.737,378.664L462.89,380.405L463.485,378.749L467.227,379.015L470.266,377.886L472.297,378.078L473.625,379.366L474.022,378.302L473.411,374.174L474.938,373.364L476.435,370.408L479.581,372.476L481.978,369.84L483.475,369.358L486.758,371.324L488.758,370.997L490.713,372.204L490.362,373.018Z" fill="#dbe9f4" stroke="#a8c4d8" stroke-width="0.8"/>
<path d="M512.443,373.321L514.81,375.058L515.1,376.764L512.504,378.078L510.504,382.326L507.938,386.521L504.533,387.673L501.891,387.403L498.638,389.006L497.05,389.924L493.553,388.748L490.377,386.126L489.033,385.365L488.208,383.272L487.491,383.209L488.896,379.196L488.086,377.833L490.469,377.812L490.789,375.23L492.942,376.85L494.515,377.545L498.073,376.764L498.409,375.499L500.104,375.305L502.166,374.314L502.624,374.724L504.609,373.926L505.617,372.421L507.007,372.031L511.542,373.98Z" fill="#dbe9f4" stroke="#a8c4d8" stroke-width="0.8"/>
<path d="M531.684,374.605L532.692,373.667L535.517,373.039L538.632,375.025L540.388,375.262L542.297,376.968L541.992,379.1L543.534,380.13L544.145,382.737L545.626,384.31L545.336,385.229L546.13,385.855L545,386.313L542.496,386.126L542.083,385.282L541.198,385.772L541.503,386.874L540.342,388.821L539.594,390.91L538.525,391.566L537.762,388.79L538.22,386.178L538.082,383.472L535.639,379.759L534.28,377.107L532.967,375.23Z" fill="#dbe9f4" stroke="#a8c4d8" stroke-width="0.8"/>
<path d="M538.525,391.566L540.419,392.68L542.419,391.709L544.343,392.742L544.435,394.289L542.373,395.587L541.091,395.02L539.9,402.174L537.41,401.558L534.326,399.412L529.332,400.791L527.225,402.284L520.995,401.976L517.742,401.06L516.093,401.488L514.871,399.062L514.092,398.028L515.085,397.032L514.031,396.285L512.703,397.626L510.229,395.891L509.893,393.415L507.312,391.996L506.839,390.068L504.533,387.673L507.938,386.521L510.504,382.326L512.504,378.078L515.1,376.764L516.933,375.402L519.559,376.1L522.277,376.132L524.247,377.673L525.698,376.7L528.828,376.1L529.882,374.605L531.684,374.605L532.967,375.23L534.28,377.107L535.639,379.759L538.082,383.472L538.22,386.178L537.762,388.79Z" fill="#dbe9f4" stroke="#a8c4d8" stroke-width="0.8"/>
<path d="M531.149,323.61L531.547,326.947L528.065,329.326L527.088,333.45L522.476,336.18L518.383,336.131L517.36,333.904L515.192,333.117L514.84,331.265L515.299,329.251L513.42,328.077L508.977,326.784L508.076,320.466L512.932,318.131L520.048,318.623L524.217,317.859L524.812,319.449L527.072,319.939Z" fill="#dbe9f4" stroke="#a8c4d8" stroke-width="0.8"/>
<path d="M534.509,309.294L536.555,311.105L536.922,314.888L538.281,319.411L533.73,322.336L531.149,323.61L527.072,319.939L524.812,319.449L524.217,317.859L520.048,318.623L512.932,318.131L508.076,320.466L508.228,314.692L510.305,309.788L514.306,307.083L517.681,312.97L521.086,312.811L521.895,306.773L525.515,305.355L527.362,306.342L531.012,309.281Z" fill="#dbe9f4" stroke="#a8c4d8" stroke-width="0.8"/>
<path d="M537.456,293.059L538.098,294.511L535.074,299.267L536.342,306.786L534.509,309.294L531.012,309.281L527.362,306.342L525.515,305.355L521.895,306.773L522.384,302.033L520.827,303.058L518.139,300.178L517.772,295.452L523.132,293.144L528.477,291.926L533.074,293.299Z" fill="#dbe9f4" stroke="#a8c4d8" stroke-width="0.8"/>
<path d="M478.664,337.25L479.642,340.872L478.466,342.761L480.008,345.255L481.062,348.97L480.726,351.345L482.467,355.686L480.573,356.394L479.458,355.617L478.389,356.907L475.335,358.203L473.762,359.866L470.678,361.318L471.426,363.289L471.884,366.056L474.037,367.623L476.435,370.408L474.938,373.364L473.411,374.174L474.022,378.302L473.625,379.366L472.297,378.078L470.266,377.886L467.227,379.015L463.485,378.749L462.89,380.405L460.737,378.664L459.469,379.015L454.919,377.085L454.048,378.451L450.444,378.409L450.979,373.893L453.117,369.501L447.008,368.305L445.008,366.598L445.252,363.724L444.397,362.238L444.886,357.726L444.168,350.613L446.718,350.613L447.787,348.022L448.841,341.615L448.062,339.211L448.887,337.699L452.429,337.311L453.224,338.885L456.094,335.35L455.132,332.625L454.934,328.464L458.141,329.438L460.859,328.314L460.92,331.153L465.211,332.859L465.165,335.435L469.487,334.076L471.869,332.082L476.649,334.946Z" fill="#dbe9f4" stroke="#a8c4d8" stroke-width="0.8"/>
<path d="M514.871,399.062L516.093,401.488L517.742,401.06L520.995,401.976L527.225,402.284L529.332,400.791L534.326,399.412L537.41,401.558L539.9,402.174L537.701,404.599L536.158,408.738L537.517,412.009L533.868,411.245L529.546,413.041L529.5,415.863L525.652,416.398L522.659,414.426L519.269,415.977L516.123,415.815L515.818,412.057L513.695,410.226L514.398,409.41L513.94,408.728L514.657,406.89L516.261,405.072L514.199,402.552L513.833,400.402Z" fill="#dbe9f4" stroke="#a8c4d8" stroke-width="0.8"/>
<path d="M530.279,448.49L529.745,450.027L523.636,450.465L523.682,449.606L518.505,448.596L519.299,446.382L521.621,448.138L524.919,447.839L528.08,448.209L527.973,449.114ZM516.123,415.815L519.269,415.977L522.659,414.426L525.652,416.398L529.5,415.863L529.546,413.041L531.608,414.551L530.294,418.074L529.286,418.71L526.706,418.549L524.492,418.017L519.361,419.478L522.293,422.608L520.139,423.509L517.788,423.518L515.543,420.65L514.749,421.875L515.696,425.182L517.818,427.756L516.215,428.949L518.582,431.462L520.674,433.028L520.735,436.068L516.81,434.642L518.063,437.381L515.375,437.941L516.978,442.617L514.169,442.688L510.687,440.389L509.099,436.123L508.35,432.543L506.701,430.047L504.518,426.931L504.243,425.368L506.213,422.683L506.457,420.877L507.847,420.074L507.923,418.606L510.702,418.103L512.321,416.875L514.611,416.989L515.314,416.006Z" fill="#dbe9f4" stroke="#a8c4d8" stroke-width="0.8"/>
<path d="M507.923,418.606L507.847,420.074L506.457,420.877L506.213,422.683L504.243,425.368L503.51,424.986L503.433,423.771L501.082,421.904L500.715,419.251L501.066,415.413L501.647,413.648L500.929,412.752L500.654,410.935L502.487,408.103L502.761,409.186L503.907,408.679L504.808,410.226L505.816,410.809L506.106,412.877L505.571,414.81L506.167,417.237Z" fill="#dbe9f4" stroke="#a8c4d8" stroke-width="0.8"/>
<path d="M489.033,385.365L490.377,386.126L493.553,388.748L497.05,389.924L498.638,389.006L499.661,391.361L501.021,393.089L499.387,395.344L497.462,394.015L494.531,394.096L490.881,393.099L488.896,393.231L487.979,394.482L486.468,393.099L485.567,395.587L487.643,398.38L488.575,400.212L490.514,402.413L492.133,403.701L493.736,406.135L497.493,408.328L497.02,409.303L493.034,407.174L490.575,405.082L486.697,403.344L483.139,399.022L483.994,398.571L482.054,396.073L481.978,394.046L479.245,393.099L477.947,395.689L476.694,393.679L476.786,391.587L476.939,391.494L479.901,391.699L480.68,390.674L482.116,391.668L483.78,391.781L483.765,390.088L485.246,389.47L485.658,386.999Z" fill="#dbe9f4" stroke="#a8c4d8" stroke-width="0.8"/>
<path d="M459.469,379.015L459.622,380.119L458.981,381.652L460.889,382.789L463.058,382.957L462.722,385.49L460.859,386.531L457.713,385.751L456.797,388.232L454.781,388.428L454.048,387.455L451.666,389.522L449.62,389.81L447.787,388.511L446.336,385.824L444.305,386.781L444.382,383.996L447.482,380.5L447.344,378.909L449.268,379.483L450.444,378.409L454.048,378.451L454.919,377.085Z" fill="#dbe9f4" stroke="#a8c4d8" stroke-width="0.8"/>
<path d="M444.397,362.238L445.252,363.724L445.008,366.598L443.786,366.741L442.839,366.167L443.298,362.484Z" fill="#dbe9f4" stroke="#a8c4d8" stroke-width="0.8"/>
<path d="M444.886,357.726L444.397,362.238L443.298,362.484L442.839,366.167L439.129,363.177L436.945,363.69L433.983,360.565L432.013,357.885L430.043,357.771L429.432,355.411L432.822,354.069L435.937,354.609L439.862,353.195L442.549,356.154Z" fill="#dbe9f4" stroke="#a8c4d8" stroke-width="0.8"/>
<path d="M448.062,339.211L448.841,341.615L447.787,348.022L446.718,350.613L444.168,350.613L444.886,357.726L442.549,356.154L439.862,353.195L435.937,354.609L432.822,354.069L435.006,352.202L438.732,341.985L444.535,339.006Z" fill="#dbe9f4" stroke="#a8c4d8" stroke-width="0.8"/>
<path d="M380.444,412.733L381.986,411.283L383.712,410.45L384.781,413.243L387.285,413.243L388.003,412.52L390.477,412.723L391.668,415.566L389.698,417.094L389.652,421.461L388.965,422.27L388.797,424.892L386.964,425.34L388.659,428.635L387.483,432.205L388.949,433.804L388.369,435.27L386.796,437.282L387.148,439.041L385.437,440.416L383.208,439.67L381.024,440.254L381.665,436.087L381.268,432.781L379.375,432.278L378.352,430.222L378.688,426.652L380.383,424.65L380.688,422.411L381.574,419.061L381.482,416.684L380.627,414.656Z" fill="#dbe9f4" stroke="#a8c4d8" stroke-width="0.8"/>
<path d="M387.148,439.041L386.796,437.282L388.369,435.27L388.949,433.804L387.483,432.205L388.659,428.635L386.964,425.34L388.797,424.892L388.965,422.27L389.652,421.461L389.698,417.094L391.668,415.566L390.477,412.723L388.003,412.52L387.285,413.243L384.781,413.243L383.712,410.45L381.986,411.283L380.444,412.733L380.657,408.66L378.917,406.145L384.918,401.936L390.11,402.988L395.806,402.958L400.326,403.958L403.838,403.651L410.695,403.839L412.39,406.105L420.193,408.728L421.735,407.488L426.515,410.09L431.432,409.342L431.661,412.675L427.645,416.445L422.209,417.637L421.827,419.525L419.216,422.608L417.582,427.098L419.231,430.222L416.788,432.635L415.872,436.132L412.665,437.2L409.656,441.285L404.281,441.366L400.234,441.267L397.577,443.134L395.959,445.116L393.882,444.681L392.309,442.911L391.103,439.868Z" fill="#dbe9f4" stroke="#a8c4d8" stroke-width="0.8"/>
<path d="M392.477,336.448L393.179,341.543L389.973,347.799L382.444,351.866L376.443,350.834L379.879,343.583L377.664,336.35L383.437,330.657L386.644,327.211L387.514,331.166L386.644,335.069L389.27,334.959Z" fill="#dbe9f4" stroke="#a8c4d8" stroke-width="0.8"/>
<path d="M463.058,382.957L465.639,383.839L466.127,382.653L470.311,381.578L471.258,383.734L477.336,385.334L476.862,388.356L477.886,390.941L474.511,390.057L471.06,392.211L471.289,395.193L470.769,396.891L472.159,399.913L476.145,402.879L478.283,407.683L483.001,412.308L486.315,412.279L487.353,413.532L486.162,414.666L489.965,416.713L493.08,418.407L496.714,421.32L497.157,422.364L496.363,424.341L494.011,421.753L490.316,420.839L488.544,424.426L491.599,426.466L491.095,429.328L489.323,429.651L487.063,434.287L485.292,434.706L485.307,433.055L486.178,430.148L487.094,428.986L485.445,425.815L484.147,423.031L482.39,422.336L481.138,419.932L478.405,418.919L476.572,416.655L473.427,416.293L470.113,413.734L466.234,410.022L463.348,406.704L462.035,400.921L459.927,400.242L456.476,398.289L454.522,399.092L452.063,401.827L450.307,402.254L450.795,399.703L448.49,398.952L447.39,394.34L448.871,392.507L447.619,390.232L447.787,388.511L449.62,389.81L451.666,389.522L454.048,387.455L454.781,388.428L456.797,388.232L457.713,385.751L460.859,386.531L462.722,385.49ZM481.383,433.439L484.605,432.973L483.078,437.2L483.704,438.852L482.818,441.571L479.565,439.581L477.412,439.005L471.502,436.295L472.083,433.53L477.046,434.023ZM455.713,418.283L457.835,416.541L460.37,420.518L459.775,427.83L457.85,427.478L456.125,429.3L454.522,427.858L454.354,421.197L453.376,417.998Z" fill="#dbe9f4" stroke="#a8c4d8" stroke-width="0.8"/>
<path d="M460.859,328.314L458.141,329.438L454.934,328.464L453.208,324.334L453.086,316.573L453.789,314.495L455.01,312.164L458.736,311.675L460.233,309.508L463.638,307.271L463.501,311.33L462.248,313.865L462.752,316.038L465.058,317.197L464.02,320.08L462.752,319.256L459.698,324.689ZM471.243,319.862L472.587,323.648L470.052,329.663L465.608,325.486L465.012,322.362Z" fill="#dbe9f4" stroke="#a8c4d8" stroke-width="0.8"/>
<path d="M392.477,336.448L389.27,334.959L386.644,335.069L387.514,331.166L386.644,327.211L390.202,326.91L394.752,331.463ZM405.64,339.766L405.656,339.766L406.266,335.606L403.426,331.129L403.365,331.03L398.219,329.737L397.211,327.738L398.753,324.41L397.348,322.336L395.073,325.877L394.813,318.61L392.675,314.692L394.218,306.571L397.516,300.026L400.906,300.674L406.022,299.999L401.487,308.679L405.808,307.593L410.45,307.634L409.351,314.022L405.533,320.903L409.916,321.39L410.252,322.183L414.039,330.955L416.94,332.131L419.552,340.331L420.758,343.119L425.904,344.462L425.385,348.912L423.217,350.927L424.912,354.448L421.094,357.987L415.429,357.919L408.206,359.764L406.221,358.452L403.426,361.565L399.501,360.812L396.524,363.345L394.264,362.025L400.479,354.988L404.281,353.529L404.251,353.517L397.623,352.387L396.417,349.659L400.861,347.518L398.539,343.75L399.333,339.115Z" fill="#dbe9f4" stroke="#a8c4d8" stroke-width="0.8"/>
<path d="M357.217,227.565L356.24,234.344L361.035,241.313L355.522,248.902L343.29,255.541L339.625,257.268L334.052,255.864L322.217,252.823L326.386,248.521L317.147,243.675L324.66,241.739L324.477,238.757L315.574,236.386L318.445,229.606L324.874,228.05L331.486,235.131L337.93,229.464L343.26,232.427L350.177,226.809Z" fill="#dbe9f4" stroke="#a8c4d8" stroke-width="0.8"/>
<path d="M615.611,412.848L616.802,413.041L619.719,416.484L621.582,416.865L622.315,415.432L624.85,413.147L627.08,416.13L629.233,420.112L631.218,420.377L632.516,421.875L629.034,422.317L628.286,426.606L627.553,428.524L626.011,429.798L626.118,432.488L625.064,432.754L622.422,429.918L623.873,427.219L622.621,425.601L621.032,426.011L616.039,430.047L615.932,426.253L614.038,425.349L612.237,423.855L613.428,422.082L611.168,420.178L612.023,418.777L610.404,417.799L609.534,416.321L610.572,415.404L613.733,417.018L616.008,417.361L616.589,416.694L614.512,413.638ZM614.497,430.203L611.595,429.485L609.442,426.959L608.77,424.883L609.656,424.734L610.908,426.215L612.786,426.197L612.771,427.042Z" fill="#dbe9f4" stroke="#a8c4d8" stroke-width="0.8"/>
<path d="M477.336,385.334L480.833,385.803L482.971,384.404L486.681,384.258L487.491,383.209L488.208,383.272L489.033,385.365L485.658,386.999L485.246,389.47L483.765,390.088L483.78,391.781L482.116,391.668L480.68,390.674L479.901,391.699L476.939,391.494L477.886,390.941L476.862,388.356Z" fill="#dbe9f4" stroke="#a8c4d8" stroke-width="0.8"/>
<path d="M540.052,198.282L539.426,206.471L545.916,214.032L542.007,222.319L546.939,234.379L544.084,243.099L547.901,250.458L546.176,256.736L552.452,263.188L550.849,267.886L546.909,273.113L537.838,284.345L530.142,285.03L522.674,288.154L515.772,289.946L513.313,285.291L509.206,282.473L510.152,273.795L508.091,265.601L510.122,260.164L513.97,254.194L523.667,243.573L526.492,241.466L526.064,237.167L520.155,232.286L518.734,228.194L518.612,211.351L512,203.553L506.335,197.799L508.885,194.64L513.604,200.921L519.132,200.343L523.682,203.178L527.729,197.96L529.821,189.099L536.403,184.902L541.839,189.827Z" fill="#dbe9f4" stroke="#a8c4d8" stroke-width="0.8"/>
<path d="M514.459,369.052L513.283,370.735L512.443,373.321L511.542,373.98L507.007,372.031L505.617,372.421L504.609,373.926L502.624,374.724L502.166,374.314L500.104,375.305L498.409,375.499L498.073,376.764L494.515,377.545L492.942,376.85L490.789,375.23L490.362,373.018L490.713,372.204L491.308,370.79L493.187,370.899L494.637,370.233L494.744,369.632L495.569,369.326L495.844,367.855L496.821,367.568L497.478,366.399L498.73,366.388L498.974,366.785L500.715,365.89L502.853,368.206L505.373,366.808L507.373,367.48L510.427,366.554Z" fill="#dbe9f4" stroke="#a8c4d8" stroke-width="0.8"/>
<path d="M482.467,355.686L484.482,357.862L487.643,358.441L487.384,360.283L489.69,361.655L490.316,359.934L493.233,360.677L493.63,362.752L496.791,363.155L498.73,366.388L497.478,366.399L496.821,367.568L495.844,367.855L495.569,369.326L494.744,369.632L494.637,370.233L493.187,370.899L491.308,370.79L490.713,372.204L488.758,370.997L486.758,371.324L483.475,369.358L481.978,369.84L479.581,372.476L476.435,370.408L474.037,367.623L471.884,366.056L471.426,363.289L470.678,361.318L473.762,359.866L475.335,358.203L478.389,356.907L479.458,355.617L480.573,356.394Z" fill="#dbe9f4" stroke="#a8c4d8" stroke-width="0.8"/>
<path d="M557.613,449.325L558.408,449.597L559.553,449.149L560.377,449.202L560.683,449.527L560.759,450.044L560.973,449.852L561.614,449.957L562.424,449.562L562.882,449.746L563.004,450.167L558.652,452.265L556.575,451.593L555.598,449.518Z" fill="#dbe9f4" stroke="#a8c4d8" stroke-width="0.8"/>
<path d="M497.493,408.328L493.736,406.135L492.133,403.701L490.514,402.413L488.575,400.212L487.643,398.38L485.567,395.587L486.468,393.099L487.979,394.482L488.896,393.231L490.881,393.099L494.531,394.096L497.462,394.015L499.387,395.344L500.914,395.324L499.86,397.948L501.906,400.222L501.28,402.988L500.288,403.255L499.493,403.78L498.119,405.141Z" fill="#dbe9f4" stroke="#a8c4d8" stroke-width="0.8"/>
<path d="M513.695,410.226L515.818,412.057L516.123,415.815L515.314,416.006L514.611,416.989L512.321,416.875L510.702,418.103L507.923,418.606L506.167,417.237L505.571,414.81L506.106,412.877L506.64,412.925L506.839,411.757L509.343,410.876L510.29,410.653L511.741,410.314Z" fill="#dbe9f4" stroke="#a8c4d8" stroke-width="0.8"/>
<path d="M498.638,389.006L501.891,387.403L504.533,387.673L506.839,390.068L507.312,391.996L509.893,393.415L510.229,395.891L512.703,397.626L514.031,396.285L515.085,397.032L514.092,398.028L514.871,399.062L513.833,400.402L514.199,402.552L516.261,405.072L514.657,406.89L513.94,408.728L514.398,409.41L513.695,410.226L511.741,410.314L510.29,410.653L510.152,410.226L510.656,409.536L511.13,408.133L510.534,408.172L509.71,407.096L509.007,406.822L508.457,405.899L507.663,405.545L507.052,404.718L506.289,405.043L505.709,406.969L504.701,407.39L505.037,406.89L503.418,405.683L502.028,405.063L501.418,404.254L500.288,403.255L501.28,402.988L501.906,400.222L499.86,397.948L500.914,395.324L499.387,395.344L501.021,393.089L499.661,391.361Z" fill="#dbe9f4" stroke="#a8c4d8" stroke-width="0.8"/>
<path d="M503.907,408.679L502.761,409.186L502.487,408.103L500.654,410.935L500.929,412.752L500.043,412.308L498.852,410.45L497.02,409.303L497.493,408.328L498.119,405.141L499.493,403.78L500.288,403.255L501.418,404.254L502.028,405.063L503.418,405.683L505.037,406.89L504.701,407.39Z" fill="#dbe9f4" stroke="#a8c4d8" stroke-width="0.8"/>

</svg>