<?xml version="1.0" encoding="UTF-8"?>
<svg id="Vrstva_1" data-name="Vrstva 1" xmlns="http://www.w3.org/2000/svg" viewBox="0 0 402.34 110.93">
  <defs>
    <style>
      .cls-1 {
        fill: #8a3328;
      }
    </style>
  </defs>
  <path class="cls-1" d="M33.43,109.28H0V1.2h33.43v108.08Z"/>
  <path class="cls-1" d="M196.37,41.67c0,12.19-5.25,22.09-15.74,29.68-10.1,7.2-22.58,10.79-37.48,10.79h-56.51v27.13h-33.43v-55.16h93.24c4.6,0,8.47-1.15,11.62-3.45,3.15-2.3,4.73-5.34,4.73-9.14s-1.57-6.8-4.73-8.99c-3.14-2.2-7.02-3.3-11.62-3.3H53.22L75.4,1.2h67.91c14.79,0,27.23,3.6,37.32,10.79,10.49,7.6,15.74,17.49,15.74,29.68Z"/>
  <path class="cls-1" d="M402.34,1.2l-28.03,95.94c-1.1,3.8-3.35,7-6.75,9.59-3.7,2.8-7.85,4.2-12.44,4.2-7.1,0-13.24-4.2-18.44-12.59l-32.98-53.81-33.13,53.81c-5.1,8.4-11.2,12.59-18.29,12.59-4.6,0-8.67-1.35-12.22-4.05-3.55-2.7-5.87-5.94-6.97-9.74L205.07,1.2h36.73l14.24,57.11,30.28-48.72c3.99-6.39,9.49-9.59,16.49-9.59,3.69,0,7.22.9,10.57,2.7,3.35,1.8,5.92,4.1,7.72,6.89l30.28,48.72,14.09-57.11h36.88Z"/>
</svg>