<?xml version="1.0" encoding="UTF-8"?>
<svg id="Vrstva_1" data-name="Vrstva 1" xmlns="http://www.w3.org/2000/svg" viewBox="0 0 438.68 166.47">
  <defs>
    <style>
      .cls-1 {
        fill: #fff;
      }
    </style>
  </defs>
  <g>
    <path class="cls-1" d="M51.13,109.28H17.7V1.2h33.43v108.08Z"/>
    <path class="cls-1" d="M214.07,41.67c0,12.19-5.25,22.09-15.74,29.68-10.1,7.2-22.58,10.79-37.48,10.79h-56.51v27.13h-33.43v-55.16h93.24c4.6,0,8.47-1.15,11.62-3.45,3.15-2.3,4.73-5.34,4.73-9.14s-1.57-6.8-4.73-8.99c-3.14-2.2-7.02-3.3-11.62-3.3h-93.24L93.1,1.2h67.91c14.79,0,27.23,3.6,37.32,10.79,10.49,7.6,15.74,17.49,15.74,29.68Z"/>
    <path class="cls-1" d="M420.04,1.2l-28.03,95.94c-1.1,3.8-3.35,7-6.75,9.59-3.7,2.8-7.85,4.2-12.44,4.2-7.1,0-13.24-4.2-18.44-12.59l-32.98-53.81-33.13,53.81c-5.1,8.4-11.2,12.59-18.29,12.59-4.6,0-8.67-1.35-12.22-4.05-3.55-2.7-5.87-5.94-6.97-9.74L222.77,1.2h36.73l14.24,57.11,30.28-48.72c3.99-6.39,9.49-9.59,16.49-9.59,3.69,0,7.22.9,10.57,2.7,3.35,1.8,5.92,4.1,7.72,6.89l30.28,48.72,14.09-57.11h36.88Z"/>
  </g>
  <g>
    <path class="cls-1" d="M3.34,166.3H0v-10.81h3.34v10.81Z"/>
    <path class="cls-1" d="M18.83,164.91c0,.98-.44,1.47-1.34,1.47-.64,0-1.25-.24-1.83-.72l-6.32-5.29v5.94h-3.36v-9.41c0-.4.12-.73.38-.99.25-.26.61-.39,1.09-.39.61,0,1.17.22,1.69.65l6.32,5.29v-5.95h3.36v9.41Z"/>
    <path class="cls-1" d="M33.66,155.5l-2.18,2.8h-3.24v8h-3.36v-8h-4.45l2.15-2.8h11.07Z"/>
    <path class="cls-1" d="M46.6,163.52l-2.16,2.79h-9.58v-10.81h11.73l-2.16,2.8h-6.22v1.14h7.86l-2.16,2.79h-5.7v1.29h8.38Z"/>
    <path class="cls-1" d="M64.13,166.3h-4.87l-3.27-2.71h-4.62v2.71h-3.36v-5.52h9.32c.57,0,1.04-.08,1.41-.25.47-.22.7-.54.7-.97,0-.84-.7-1.26-2.11-1.26h-9.32l2.19-2.8h6.82c1.69,0,3.06.32,4.11.96,1.18.73,1.77,1.77,1.77,3.12,0,.76-.24,1.45-.71,2.06s-1.13,1.09-1.97,1.42l3.91,3.25Z"/>
    <path class="cls-1" d="M79.2,164.91c0,.98-.45,1.47-1.34,1.47-.64,0-1.25-.24-1.83-.72l-6.32-5.29v5.94h-3.36v-9.41c0-.4.12-.73.38-.99.25-.26.61-.39,1.09-.39.61,0,1.17.22,1.69.65l6.32,5.29v-5.95h3.36v9.41Z"/>
    <path class="cls-1" d="M86.15,166.3l2.02-2.8h4.51l-2.8-3.88-4.87,6.69h-4.15l6.93-9.61c.22-.32.52-.6.91-.84.43-.26.84-.39,1.24-.39s.83.13,1.25.39c.37.23.67.51.9.84l6.76,9.61h-12.69Z"/>
    <path class="cls-1" d="M109.52,155.5l-2.17,2.8h-3.24v8h-3.36v-8h-4.45l2.16-2.8h11.06Z"/>
    <path class="cls-1" d="M114.78,166.3h-3.34v-10.81h3.34v10.81Z"/>
    <path class="cls-1" d="M133.34,160.8c0,1.58-.62,2.89-1.85,3.93-1.24,1.04-2.79,1.57-4.67,1.57h-3.25c-1.89,0-3.45-.52-4.68-1.57-1.24-1.04-1.85-2.36-1.85-3.93s.61-2.86,1.83-3.84c1.22-.98,2.79-1.47,4.7-1.47h3.25c1.91,0,3.47.49,4.7,1.47,1.22.98,1.83,2.26,1.83,3.84ZM126.82,158.3h-3.25c-.93,0-1.7.25-2.3.74-.6.49-.9,1.13-.9,1.9s.3,1.39.9,1.87c.6.47,1.36.71,2.3.71h3.25c.93,0,1.7-.24,2.3-.71s.9-1.1.9-1.87-.3-1.4-.91-1.9c-.61-.49-1.37-.74-2.29-.74Z"/>
    <path class="cls-1" d="M148.49,164.91c0,.98-.44,1.47-1.34,1.47-.64,0-1.25-.24-1.83-.72l-6.32-5.29v5.94h-3.36v-9.41c0-.4.12-.73.38-.99.25-.26.61-.39,1.09-.39.61,0,1.17.22,1.69.65l6.32,5.29v-5.95h3.36v9.41Z"/>
    <path class="cls-1" d="M155.44,166.3l2.02-2.8h4.51l-2.8-3.88-4.87,6.69h-4.15l6.93-9.61c.22-.32.52-.6.91-.84.43-.26.84-.39,1.24-.39s.83.13,1.25.39c.37.23.67.51.9.84l6.76,9.61h-12.69Z"/>
    <path class="cls-1" d="M180.85,163.52l-2.17,2.79h-9.55v-10.81h3.34v8.02h8.38Z"/>
    <path class="cls-1" d="M203.5,159.54c0,1.22-.52,2.21-1.57,2.97-1.01.72-2.26,1.08-3.75,1.08h-5.66v2.71h-3.34v-5.52h9.32c.46,0,.84-.12,1.16-.35.32-.23.47-.53.47-.91s-.16-.68-.47-.9c-.32-.22-.7-.33-1.16-.33h-9.32l2.21-2.8h6.79c1.48,0,2.72.36,3.74,1.08,1.05.76,1.57,1.75,1.57,2.97Z"/>
    <path class="cls-1" d="M221.02,166.3h-4.87l-3.27-2.71h-4.62v2.71h-3.36v-5.52h9.32c.57,0,1.04-.08,1.41-.25.47-.22.7-.54.7-.97,0-.84-.7-1.26-2.11-1.26h-9.32l2.19-2.8h6.82c1.69,0,3.06.32,4.11.96,1.18.73,1.77,1.77,1.77,3.12,0,.76-.24,1.45-.71,2.06s-1.13,1.09-1.97,1.42l3.91,3.25Z"/>
    <path class="cls-1" d="M238.11,160.8c0,1.58-.62,2.89-1.85,3.93-1.24,1.04-2.79,1.57-4.67,1.57h-3.25c-1.89,0-3.45-.52-4.68-1.57-1.24-1.04-1.85-2.36-1.85-3.93s.61-2.86,1.83-3.84c1.22-.98,2.79-1.47,4.7-1.47h3.25c1.91,0,3.47.49,4.7,1.47,1.22.98,1.83,2.26,1.83,3.84ZM231.59,158.3h-3.25c-.93,0-1.7.25-2.3.74-.6.49-.9,1.13-.9,1.9s.3,1.39.9,1.87c.6.47,1.36.71,2.3.71h3.25c.93,0,1.7-.24,2.3-.71s.9-1.1.9-1.87-.3-1.4-.91-1.9c-.61-.49-1.37-.74-2.29-.74Z"/>
    <path class="cls-1" d="M251.92,161.39c0,3.28-2.25,4.92-6.75,4.92h-4.92v-2.79h4.92c1.13,0,1.94-.12,2.42-.36.64-.31.96-.9.96-1.77v-5.89h3.36v5.89Z"/>
    <path class="cls-1" d="M265.57,163.52l-2.16,2.79h-9.58v-10.81h11.74l-2.16,2.8h-6.22v1.14h7.85l-2.16,2.79h-5.69v1.29h8.38Z"/>
    <path class="cls-1" d="M280.71,163.52l-2.15,2.79h-5.43c-1.88,0-3.44-.52-4.67-1.57-1.24-1.04-1.86-2.36-1.86-3.93s.61-2.86,1.83-3.84c1.22-.98,2.78-1.47,4.69-1.47h7.58l-2.15,2.8h-5.43c-.92,0-1.68.25-2.28.74-.6.49-.9,1.13-.9,1.9s.3,1.38.9,1.86c.6.48,1.36.72,2.28.72h7.58Z"/>
    <path class="cls-1" d="M294.76,155.5l-2.17,2.8h-3.24v8h-3.36v-8h-4.45l2.16-2.8h11.06Z"/>
    <path class="cls-1" d="M322.64,155.5l-2.8,9.59c-.11.38-.34.7-.68.96-.37.28-.78.42-1.24.42-.71,0-1.32-.42-1.84-1.26l-3.3-5.38-3.31,5.38c-.51.84-1.12,1.26-1.83,1.26-.46,0-.87-.13-1.22-.41-.36-.27-.59-.59-.7-.97l-2.8-9.59h3.68l1.42,5.71,3.03-4.87c.4-.64.95-.96,1.65-.96.37,0,.73.09,1.06.27.33.18.59.41.77.69l3.03,4.87,1.41-5.71h3.68Z"/>
    <path class="cls-1" d="M339.83,160.8c0,1.58-.61,2.89-1.85,3.93-1.24,1.04-2.79,1.57-4.67,1.57h-3.26c-1.89,0-3.45-.52-4.68-1.57-1.24-1.04-1.85-2.36-1.85-3.93s.61-2.86,1.84-3.84c1.22-.98,2.79-1.47,4.7-1.47h3.26c1.91,0,3.47.49,4.69,1.47,1.22.98,1.83,2.26,1.83,3.84ZM333.32,158.3h-3.26c-.93,0-1.69.25-2.29.74-.6.49-.9,1.13-.9,1.9s.3,1.39.9,1.87c.6.47,1.36.71,2.29.71h3.26c.93,0,1.69-.24,2.29-.71.6-.47.9-1.1.9-1.87s-.3-1.4-.91-1.9c-.6-.49-1.36-.74-2.28-.74Z"/>
    <path class="cls-1" d="M357.81,166.3h-4.87l-3.27-2.71h-4.62v2.71h-3.36v-5.52h9.32c.57,0,1.04-.08,1.41-.25.47-.22.7-.54.7-.97,0-.84-.7-1.26-2.11-1.26h-9.32l2.19-2.8h6.82c1.69,0,3.06.32,4.11.96,1.18.73,1.77,1.77,1.77,3.12,0,.76-.24,1.45-.71,2.06s-1.13,1.09-1.97,1.42l3.91,3.25Z"/>
    <path class="cls-1" d="M373.01,166.3h-5.1l-5.19-3.61v3.61h-3.36v-10.81h3.36v3.7l5.19-3.7h5.04l-7.7,5.49,7.76,5.32Z"/>
    <path class="cls-1" d="M388.51,155.5l-2.16,2.8h-7.64c-.41,0-.61.15-.61.43s.2.44.61.44h5.5c1.31,0,2.41.32,3.28.96.91.68,1.36,1.56,1.36,2.64s-.46,1.93-1.38,2.59c-.86.63-1.94.94-3.27.94h-9.89l2.15-2.79h7.74c.35,0,.67-.06.95-.18.36-.15.54-.36.54-.61s-.18-.47-.54-.61c-.28-.1-.59-.15-.95-.15h-5.5c-1.22,0-2.24-.28-3.06-.84-.88-.6-1.32-1.39-1.32-2.38s.44-1.8,1.32-2.4c.82-.56,1.84-.84,3.06-.84h9.8Z"/>
    <path class="cls-1" d="M404.18,166.3h-3.34v-4.03h-6.43v4.03h-3.36v-10.81h3.36v3.97h6.43v-3.97h3.34v10.81Z"/>
    <path class="cls-1" d="M422.73,160.8c0,1.58-.61,2.89-1.85,3.93-1.24,1.04-2.79,1.57-4.67,1.57h-3.26c-1.89,0-3.45-.52-4.68-1.57-1.24-1.04-1.85-2.36-1.85-3.93s.61-2.86,1.84-3.84c1.22-.98,2.79-1.47,4.7-1.47h3.26c1.91,0,3.47.49,4.69,1.47,1.22.98,1.83,2.26,1.83,3.84ZM416.21,158.3h-3.26c-.93,0-1.69.25-2.29.74-.6.49-.9,1.13-.9,1.9s.3,1.39.9,1.87c.6.47,1.36.71,2.29.71h3.26c.93,0,1.69-.24,2.29-.71.6-.47.9-1.1.9-1.87s-.3-1.4-.91-1.9c-.6-.49-1.36-.74-2.28-.74Z"/>
    <path class="cls-1" d="M438.68,159.54c0,1.22-.52,2.21-1.57,2.97-1.01.72-2.26,1.08-3.75,1.08h-5.66v2.71h-3.34v-5.52h9.32c.46,0,.84-.12,1.16-.35.32-.23.47-.53.47-.91s-.16-.68-.47-.9c-.32-.22-.7-.33-1.16-.33h-9.32l2.21-2.8h6.79c1.48,0,2.72.36,3.74,1.08,1.05.76,1.57,1.75,1.57,2.97Z"/>
  </g>
</svg>