<?xml version="1.0" encoding="utf-8"?>
<!-- Generator: Adobe Illustrator 15.0.0, SVG Export Plug-In . SVG Version: 6.00 Build 0)  -->
<!DOCTYPE svg PUBLIC "-//W3C//DTD SVG 1.1//EN" "http://www.w3.org/Graphics/SVG/1.1/DTD/svg11.dtd">
<svg version="1.1" id="Layer_1" xmlns="http://www.w3.org/2000/svg" xmlns:xlink="http://www.w3.org/1999/xlink" x="0px" y="0px"
	 width="582px" height="226.77px" viewBox="0 0 582 226.77" enable-background="new 0 0 582 226.77" xml:space="preserve">
<g>
	<rect x="19.994" y="18.53" fill="#0065BD" width="191.199" height="191.199"/>
	<g>
		<path fill="#FFFFFF" d="M174.96,101.443l4.9-3.575c-1.853-1.985-3.839-4.368-3.839-8.208c0-2.912,1.987-6.089,4.5-7.413
			c-1.323-1.589-3.442-3.042-6.485-3.042c-3.971,0-7.282,2.911-7.282,6.749c0,2.646,1.722,4.898,3.709,5.957
			C170.462,95.618,172.183,98.926,174.96,101.443 M148.755,75.367l4.103-7.282h-6.089c0,1.323-1.192,2.779-2.65,2.779
			c-1.584,0-2.644-1.058-2.644-2.779h-5.427c0,1.589-1.191,2.779-2.647,2.779s-2.649-1.19-2.649-2.779h-6.09l3.577,7.014
			c2.78-0.263,5.426-0.394,8.074-0.394C141.206,74.706,145.445,74.969,148.755,75.367 M137.634,139.961
			c-0.663-1.191-1.323-2.649-1.323-5.293c0-3.443,1.984-6.355,6.222-8.21c2.779-1.323,4.895-2.514,8.604-4.366
			c8.735-4.5,11.78-12.973,11.78-21.708c0-4.368-1.193-7.811-2.646-10.723c0.394,2.383,0.792,4.37,0.792,6.751
			c0,9.134-3.175,15.885-11.515,19.987c-5.292,2.646-7.942,3.706-11.121,5.295c-4.496,2.382-7.014,5.428-7.014,9.134
			C131.413,135.46,133.793,138.902,137.634,139.961 M132.473,138.242c-1.455-1.46-3.043-4.105-3.043-7.547
			c0-4.367,2.911-8.074,8.073-10.722c4.5-2.118,7.147-3.178,11.117-5.03c8.341-4.103,10.855-11.119,10.855-18.662
			c0-7.281-2.382-10.988-4.369-13.371c1.456,2.78,1.854,6.089,1.854,8.87c0,8.074-2.381,15.089-11.78,18.794
			c-4.766,1.985-7.812,2.647-11.913,4.499c-6.487,3.047-9.002,6.62-9.002,11.913C124.265,132.02,127.442,136.782,132.473,138.242
			 M127.442,137.183c-2.251-1.853-5.165-4.897-5.165-10.325c0-5.692,2.383-9.928,9.795-13.104c4.769-1.985,7.282-2.912,11.783-4.634
			c9.53-3.573,11.516-10.589,11.516-17.473c0-6.616-2.383-10.457-5.296-12.971c1.721,2.117,2.781,5.693,2.781,9.397
			c0,8.735-3.31,13.635-12.708,16.944c-3.839,1.191-7.941,2.381-12.179,3.97c-7.675,2.912-11.647,7.147-11.647,14.296
			C116.323,130.695,122.015,136.256,127.442,137.183 M122.148,136.256c-5.295-2.647-7.812-8.339-7.812-13.371
			c0-7.28,4.501-12.442,12.044-15.223c4.637-1.719,8.342-2.777,12.974-4.366c9.002-3.178,11.915-7.413,11.915-15.487
			c0-4.633-1.722-8.603-4.501-10.854c0.925,1.058,1.191,2.381,1.191,3.573c0,2.251-1.191,3.309-2.912,3.309
			c-1.06,0-2.121-0.662-2.251-1.72c0.529,0.395,0.927,0.529,1.458,0.529c1.454,0,2.249-1.06,2.249-2.516
			c0-2.25-2.119-3.442-4.235-3.706c-1.854-0.266-3.841-0.266-6.089-0.266s-4.369,0.133-7.148,0.266
			c1.72,2.383,7.413,1.721,9.132,2.912c-1.458-0.13-2.912-0.13-4.37,0.263c0,0.929-0.394,1.987-1.321,1.987
			c-1.722,0-2.516-1.852-3.707-5.162l-6.75,0.531c-1.06,0.131-1.456,0.529-1.326,1.324l0.664,6.618c0,0.263,0.266,0.396,0.531,0.396
			c0.264,0,0.528-0.132,0.66-0.531c0.265-0.529,1.062-1.719,3.044-1.719c2.913,0,5.163,2.648,5.294,5.691
			c-1.059-1.454-3.439-2.779-7.413-2.779c-3.043,0-5.556,0.927-9.529,0.927c-4.235,0-6.618-1.589-6.618-3.574
			c0-0.927,0.131-1.458,0.662-2.12c-1.722,0.794-3.045,2.252-3.045,4.633c0,2.913,2.121,5.959,8.337,5.959
			c5.692,0,8.343-3.576,13.503-3.576c2.383,0,3.575,1.191,3.575,2.516c0,1.191-1.061,2.25-2.912,2.25
			c-2.251,0-3.836-1.19-4.633-2.383c-0.132-0.265-0.265-0.396-0.531-0.396c-0.394,0-0.528,0.264-0.528,0.529l0.134,6.353
			c0,0.795,0.394,1.193,1.324,1.06c3.97-0.398,8.073-0.927,11.913-1.19c7.148-0.662,12.046-5.429,12.046-10.723
			c0-0.794,0-1.458-0.132-2.25c0.659,1.06,0.925,2.117,0.925,3.441c0,4.899-2.647,8.604-11.117,10.855
			c-4.502,1.19-7.812,1.719-11.651,2.646c-10.192,2.383-16.809,10.192-16.809,18.93
			C108.382,127.917,114.074,135.197,122.148,136.256 M77.803,88.471c0.531-1.19,0.664-2.25,0.664-3.045
			c0-1.721-0.796-3.308-1.588-3.97c1.984,0,3.704,1.455,3.704,3.441C80.583,86.749,79.392,87.942,77.803,88.471 M102.16,119.974
			l4.235-2.251c1.457-8.866,6.749-15.088,16.017-17.339c-4.897,0.264-9.135,0.396-15.089,0.662
			c-6.353,0.263-16.811,1.06-24.089,1.589c-1.458,0.132-2.383-0.399-2.782-1.589c-0.396-1.323-1.19-3.839-1.323-5.295
			c-0.135-1.19,0.133-1.987,1.193-2.779c2.116-1.458,4.235-3.178,4.235-6.751c0-3.838-3.311-6.353-6.355-6.353
			c-1.058,0-1.853,0.131-2.513,0.394c-0.796-0.527-1.588-0.925-3.178-0.925c-2.252,0-4.235,1.456-4.766,2.646
			c-3.836-0.264-6.882,2.516-6.618,6.222c0.529-0.53,1.589-1.058,2.782-1.058c1.453,0,2.779,1.058,2.779,2.646
			c0,1.456-0.266,3.311-0.266,5.293c0,6.091,4.9,9.269,4.9,12.444c0,1.588-1.193,2.912-2.782,2.912
			c0.927,3.31,3.971,5.03,8.074,5.03c2.649,0,5.032-0.264,8.869-0.264C96.469,115.209,101.231,116.399,102.16,119.974
			 M142.927,157.434h1.328c-0.137-4.235-1.193-7.147-2.913-10.191c-0.929-1.722-2.12-3.573-3.047-4.768
			c-0.529-0.793-1.192-1.057-1.984-1.057c-0.531,0-0.927,0.396-0.531,1.057c1.062,1.72,2.515,4.369,4.37,8.472
			c-1.588,0.267-1.987,1.06-1.987,2.384C138.163,155.447,140.15,157.434,142.927,157.434 M72.642,89
			c0.131-3.707-1.456-5.691-3.705-6.618c0.396-0.133,0.925-0.398,1.718-0.398c1.722,0,3.576,1.458,3.576,3.708
			C74.231,86.882,73.833,88.205,72.642,89 M157.489,182.186c-0.529-1.19-2.25-2.382-4.368-2.382c-1.192,0-1.984,0.264-2.515,0.529
			c0.132-1.06,1.191-2.25,3.31-2.25C156.429,178.083,157.752,180.067,157.489,182.186 M156.695,187.879
			c-0.794-0.927-2.116-1.721-3.837-1.721c-2.119,0-3.178,0.927-3.708,1.587c-0.264-1.587,1.06-3.572,3.575-3.572
			C155.372,184.173,156.695,186.025,156.695,187.879 M62.583,124.737c0.925-2.25,3.043-3.837,5.559-4.366
			c0.526-0.797,1.191-1.456,1.854-1.986l-4.501-18.797c-0.531-1.321-0.928-2.645-0.928-4.5c0-1.983,0.397-3.97,0.397-5.028
			c0-0.927-0.528-1.19-1.057-1.19c-0.398,0-0.664,0-0.795,0.131v0.531c0,3.042-1.855,5.425-4.898,5.425s-5.428-2.514-5.428-5.425
			c0-2.913,2.385-5.297,5.428-5.297c0.529,0,1.192,0,1.985,0.266c0.927-2.382,3.838-4.501,6.881-4.103
			c-2.116-2.648-5.292-4.237-8.866-4.237c-7.678,0-13.766,5.561-13.766,13.372c0,7.277,5.957,13.104,13.37,13.236L62.583,124.737z
			 M83.1,153.198c1.985,0,4.103-1.061,6.087-3.044c3.574-3.442,8.605-8.605,11.649-10.593c2.647-1.719,4.369-2.379,6.088-2.379
			c1.06,0,1.855,0.265,2.647,1.06l4.502-3.444c-5.163-3.838-7.546-8.868-7.679-15.088c-7.146,3.837-12.309,9.134-18.267,14.161
			c-1.059,0.797-1.587,1.19-2.515,1.19s-1.721-0.925-3.31-2.513c-1.324-1.324-1.588-2.118-1.588-3.043
			c0-1.589,0.531-2.12,0.531-4.238c0-4.235-3.308-6.617-6.485-6.617c-2.648,0-4.633,1.455-5.294,3.31
			c-3.577,0.264-5.826,2.912-5.826,5.689c0,0.663,0.134,1.194,0.267,1.588c-1.324,0.796-2.65,2.383-2.65,4.503
			c0,2.249,1.192,4.369,3.179,5.029c-0.268-0.397-0.399-0.927-0.399-1.587c0-1.193,1.06-2.253,2.517-2.253
			c1.19,0,1.985,0.4,2.912,1.458c1.189,1.588,2.382,3.044,4.367,4.766c1.854,1.588,3.97,2.646,5.957,3.838
			c1.189,0.793,2.116,1.853,2.116,3.442c0,1.06-0.792,2.249-2.381,2.647C80.186,152.535,81.511,153.198,83.1,153.198
			 M75.555,127.386c-0.134-2.648-2.118-4.765-4.634-5.294c0.399-0.267,1.058-0.661,2.119-0.661c1.852,0,3.309,1.588,3.309,3.307
			C76.348,126.062,75.951,126.724,75.555,127.386 M90.247,197.011c-0.531-0.661-0.794-1.323-0.794-2.117
			c0-1.588,1.323-2.78,3.175-2.78c2.913,0,4.501,3.178,8.342,3.178c4.368,0,6.484-3.178,10.455-3.178
			c1.987,0,4.768,1.192,4.768,3.707c0,0.398-0.137,0.794-0.398,1.06c4.501,0,7.674-3.839,7.674-10.194
			c0-8.868-0.261-12.441-0.394-17.338c3.442-0.133,6.748-1.854,6.218-7.28c-0.926,0.792-1.983,1.191-3.174,1.191
			c-1.588,0-2.781-1.191-2.781-2.913c0-0.795,0-1.722,0.13-2.648l15.489-0.399c-1.456-0.791-2.514-2.38-2.514-4.231
			c0-1.324,0.528-2.251,1.589-2.78c-1.458-3.044-2.649-5.427-4.103-7.677c-0.797-1.191-1.722-2.383-3.577-2.383
			c-4.104-0.134-12.441,1.057-16.679,2.515c-3.175,1.059-6.221,3.44-6.221,8.867c0,5.03,1.72,13.9,1.588,27.799
			c0,1.986-0.529,2.647-1.719,2.911c-1.06,0.265-3.839,0.527-5.56,0.265c-0.926-0.134-1.722-0.794-2.251-2.779
			c-0.663-2.78-2.646-5.56-6.618-5.56c-3.577,0-6.75,2.649-6.221,6.617c-1.72,1.061-2.515,2.781-2.515,4.369s0.528,2.912,1.19,3.707
			c-0.396,0.927-0.527,1.454-0.527,2.381C84.821,194.631,87.732,197.011,90.247,197.011 M71.581,130.96
			c-0.792-1.588-2.514-2.515-4.501-2.515c-0.792,0-1.453,0.133-1.983,0.264c0.263-1.06,1.457-1.985,3.177-1.985
			C70.525,126.724,71.979,128.445,71.581,130.96 M94.749,182.186c-0.532-1.19-2.251-2.382-4.369-2.382
			c-1.192,0-1.987,0.264-2.515,0.529c0.131-1.06,1.192-2.25,3.31-2.25C93.688,178.083,95.011,180.067,94.749,182.186
			 M83.494,193.702c-0.394-0.794-0.527-1.589-0.527-2.384c0-0.793,0.133-1.454,0.397-2.116c-0.663-1.192-1.061-2.517-1.061-3.972
			c0-1.984,0.93-3.837,2.253-5.029l-8.208-35.607c-1.324-0.661-2.647-1.456-3.706-2.384c-1.854-1.588-2.912-2.778-4.632-4.763
			c-0.531-0.53-0.93-0.795-1.456-0.795c-0.797,0-1.323,0.53-1.058,1.59l1.719,8.205l3.574,2.514l9.926,42.624L83.494,193.702z
			 M93.956,187.879c-0.797-0.927-2.12-1.721-3.841-1.721c-2.119,0-3.177,0.927-3.708,1.587c-0.262-1.587,1.062-3.572,3.576-3.572
			C92.628,184.173,93.956,186.025,93.956,187.879 M28.563,197.804l8.074-6.219l9.928-42.624l3.574-2.514l7.942-34.15l-1.721-7.941
			c-1.987-0.399-3.709-0.927-5.162-1.721L28.563,197.804z M152.989,197.011c-0.53-0.661-0.795-1.323-0.795-2.117
			c0-1.588,1.324-2.78,3.178-2.78c2.911,0,4.5,3.178,8.338,3.178c4.367,0,6.486-3.178,10.456-3.178c1.986,0,4.766,1.192,4.766,3.707
			c0,0.398-0.132,0.794-0.396,1.06c4.5,0,7.675-3.839,7.675-10.194c0-8.471-0.792-17.868-1.721-27.268
			c2.383-0.528,4.633-2.911,4.633-5.955c0-1.058-0.395-2.25-1.058-3.309c-0.663,0.927-1.854,1.719-3.836,2.251
			c-2.782,0.793-6.222,1.189-8.74,1.189c-5.69,0-7.544-0.396-10.189-1.189c-0.135-3.574-2.383-6.488-4.501-8.473
			c3.308,1.322,4.763,1.984,10.059,1.984c16.943,0,27.4-11.382,27.4-24.355c0-9.399-5.957-13.765-11.384-16.943l-5.03,3.573
			c6.089,2.78,10.06,6.882,10.06,12.443c0,6.089-4.895,10.458-10.586,10.458c-6.092,0-10.855-4.369-10.855-10.326
			c0-4.498,2.116-7.808,6.087-10.985c3.971-3.175,10.061-7.014,13.371-10.587c1.722-1.856,3.176-4.769,3.043-7.019
			c2.25-1.058,3.971-3.306,3.971-6.22c0-3.837-3.704-6.749-7.676-6.749c-2.384,0-5.029,1.453-6.355,3.042
			c2.384,0.927,4.635,4.103,4.635,7.413c0,2.781-1.72,5.163-3.707,7.147c-3.044,3.047-7.015,5.297-11.384,8.871
			c-5.295,4.368-8.472,9.53-8.472,15.354c0,8.074,6.222,15.62,16.015,15.62c3.178,0,5.693-0.663,7.548-1.854
			c-3.178,3.707-9.133,5.561-15.354,5.561c-5.43,0-9.134-0.797-13.104-3.706c-3.575-2.647-6.354-8.868-6.222-13.502
			c-2.912,1.722-6.354,3.308-9.266,4.634c-4.105,1.983-5.428,4.102-5.428,7.676c0,4.767,3.311,8.473,4.764,11.252
			c1.987,3.574,2.649,6.751,2.913,10.061c0.796,8.073,5.43,11.78,13.635,11.78c3.707,0,8.603-0.265,10.589-0.531
			c0.794,3.708,1.722,8.075,1.722,11.386c0,1.986-0.531,2.647-1.722,2.911c-1.058,0.265-3.839,0.527-5.559,0.265
			c-0.925-0.134-1.722-0.794-2.252-2.779c-0.66-2.78-2.646-5.56-6.617-5.56c-3.575,0-6.75,2.649-6.222,6.617
			c-1.722,1.061-2.516,2.781-2.516,4.369s0.529,2.912,1.192,3.707c-0.398,0.927-0.531,1.454-0.531,2.381
			C147.561,194.631,150.475,197.011,152.989,197.011"/>
		<path fill="#0065BD" d="M539.127,209.73h18.864v-6.236h-10.979v-4.424h10.621v-6.074h-10.621v-4.386h10.979v-6.235h-18.864V209.73
			z M519.496,210.371c6.437,0,11.785-3.097,11.785-10.74v-17.256h-7.885v16.533c0,3.098-1.687,4.463-3.9,4.463
			c-2.21,0-3.9-1.365-3.9-4.463v-16.533h-7.885v17.256C507.711,207.274,513.062,210.371,519.496,210.371 M491.18,210.371
			c4.866,0,8.245-1.487,9.896-2.333v-12.107h-7.683v7.402c-0.565,0.121-1.167,0.199-1.771,0.199c-3.059,0-6.438-2.331-6.438-7.482
			c0-5.549,2.977-8.283,8.084-8.283c2.819,0,5.231,0.965,6.721,1.771V183.1c-1.61-0.725-4.264-1.729-7.885-1.729
			c-9.292,0-15.529,5.752-15.529,14.68C476.575,204.982,483.535,210.371,491.18,210.371 M456.708,198.465l2.692-10.096h0.362
			l2.698,10.096H456.708z M465.472,209.73h8.09l-8.207-27.355H453.81l-8.166,27.355h8.084l1.492-5.673h8.729L465.472,209.73z
			 M428.388,195.007v-6.799h3.177c2.133,0,3.381,1.649,3.381,3.378c0,1.73-1.248,3.421-3.381,3.421H428.388z M420.503,209.73h7.885
			v-9.616h2.01l4.745,9.616h8.891l-5.025-8.449c-0.523-0.885-1.168-1.689-1.53-1.93l0.042-0.162c2.412-1.086,5.83-3.14,5.83-7.804
			c0-4.908-3.901-9.011-10.294-9.011h-12.553V209.73z M400.271,195.007v-6.758h3.097c1.729,0,3.297,1.447,3.297,3.377
			c0,1.972-1.567,3.381-3.297,3.381H400.271z M392.386,209.73h7.885v-8.852h4.021c6.397,0,10.378-4.062,10.378-9.091
			s-3.98-9.413-10.378-9.413h-11.906V209.73z M348.341,209.73h7.885v-16.414h0.117l8.289,16.414h9.614v-27.355h-7.885v16.331h-0.121
			l-8.205-16.331h-9.694V209.73z M332.411,209.73h7.885v-27.355h-7.885V209.73z M302.686,210.371c6.435,0,11.783-3.097,11.783-10.74
			v-17.256h-7.885v16.533c0,3.098-1.685,4.463-3.898,4.463c-2.212,0-3.901-1.365-3.901-4.463v-16.533h-7.885v17.256
			C290.899,207.274,296.249,210.371,302.686,210.371 M271.271,209.73h7.884v-20.96h6.797v-6.396h-21.52v6.396h6.839V209.73z
			 M253.329,210.172c3.258,0,5.994-0.846,7.643-1.689v-6.879c-1.568,0.844-3.378,1.569-6.235,1.569s-6.999-2.173-6.999-7.123
			c0-4.945,3.782-7.279,7.443-7.279c2.492,0,4.222,0.563,5.75,1.327V183.3c-1.608-0.722-3.62-1.286-6.839-1.286
			c-8.084,0-14.961,5.311-14.961,14.036C239.131,204.78,245.287,210.172,253.329,210.172"/>
		<path fill="#0065BD" d="M403.168,169.412c7.482,0,11.623-4.708,11.623-9.252c0-4.465-2.292-7.082-6.758-8.168
			c-1.811-0.442-2.813-0.603-4.183-0.885c-1.85-0.4-2.654-0.924-2.654-1.97c0-1.206,1.364-1.972,4.425-1.972
			c3.339,0,6.114,1.047,7.483,1.81v-6.796c-1.771-0.768-4.67-1.409-7.885-1.409c-6.8,0-11.828,3.581-11.828,9.129
			c0,4.227,2.375,6.881,6.074,7.806c2.049,0.523,3.138,0.763,4.908,1.209c1.489,0.359,2.493,0.844,2.493,1.93
			c0,1.366-1.448,2.133-4.102,2.133c-3.623,0-7.28-1.571-9.054-2.816v7.156C395.927,168.564,399.064,169.412,403.168,169.412
			 M368.612,168.768h18.867v-6.236H376.5v-4.424h10.617v-6.074H376.5v-4.385h10.979v-6.236h-18.867V168.768z M352.684,168.768h7.884
			v-27.355h-7.884V168.768z M329.273,161.968v-13.755h1.65c3.781,0,6.676,2.453,6.676,6.879c0,4.424-2.895,6.876-6.676,6.876
			H329.273z M321.392,168.768h10.82c7.842,0,14.038-5.43,14.038-13.676s-6.196-13.68-14.038-13.68h-10.82V168.768z M301.76,169.412
			c6.438,0,11.789-3.1,11.789-10.74v-17.26h-7.885v16.535c0,3.097-1.69,4.467-3.904,4.467c-2.212,0-3.901-1.37-3.901-4.467v-16.535
			h-7.884v17.26C289.975,166.312,295.323,169.412,301.76,169.412 M270.346,168.768h7.884v-20.957h6.797v-6.398h-21.52v6.398h6.839
			V168.768z M249.227,169.412c7.482,0,11.627-4.708,11.627-9.252c0-4.465-2.294-7.082-6.761-8.168
			c-1.808-0.442-2.814-0.603-4.183-0.885c-1.85-0.4-2.654-0.924-2.654-1.97c0-1.206,1.367-1.972,4.424-1.972
			c3.337,0,6.114,1.047,7.48,1.81v-6.796c-1.768-0.768-4.663-1.409-7.882-1.409c-6.798,0-11.828,3.581-11.828,9.129
			c0,4.227,2.376,6.881,6.075,7.806c2.053,0.523,3.138,0.763,4.91,1.209c1.488,0.359,2.495,0.844,2.495,1.93
			c0,1.366-1.45,2.133-4.105,2.133c-3.62,0-7.281-1.571-9.049-2.816v7.156C241.986,168.564,245.123,169.412,249.227,169.412"/>
		<path fill="#0065BD" d="M518.494,121.008v-13.756h1.645c3.783,0,6.682,2.453,6.682,6.878c0,4.424-2.898,6.878-6.682,6.878H518.494
			z M510.607,127.808h10.821c7.846,0,14.036-5.433,14.036-13.678c0-8.247-6.19-13.677-14.036-13.677h-10.821V127.808z
			 M484.541,127.808h18.865v-6.236h-10.98v-4.424h10.622v-6.074h-10.622v-4.386h10.98v-6.235h-18.865V127.808z M470.947,128.249
			c3.258,0,5.993-0.844,7.641-1.689v-6.879c-1.566,0.845-3.379,1.569-6.232,1.569c-2.858,0-6.999-2.173-6.999-7.12
			c0-4.948,3.78-7.28,7.44-7.28c2.494,0,4.225,0.562,5.754,1.327v-6.8c-1.61-0.722-3.623-1.287-6.839-1.287
			c-8.087,0-14.963,5.311-14.963,14.039S462.9,128.249,470.947,128.249 M424.407,127.808h7.885v-16.412h0.119l8.287,16.412h9.614
			v-27.355h-7.885v16.332h-0.121l-8.205-16.332h-9.694V127.808z M403.33,116.542l2.693-10.096h0.365l2.692,10.096H403.33z
			 M412.098,127.808h8.085l-8.205-27.355h-11.545l-8.166,27.355h8.084l1.489-5.674h8.729L412.098,127.808z M373.36,127.808h10.783
			l8.202-27.355h-8.849l-4.669,20.476h-0.158l-4.666-20.476h-8.849L373.36,127.808z M345.161,121.008v-13.756h1.65
			c3.78,0,6.676,2.453,6.676,6.878c0,4.424-2.896,6.878-6.676,6.878H345.161z M337.277,127.808h10.821
			c7.846,0,14.04-5.433,14.04-13.678c0-8.247-6.194-13.677-14.04-13.677h-10.821V127.808z M316.198,116.542l2.698-10.096h0.362
			l2.692,10.096H316.198z M324.971,127.808h8.084l-8.205-27.355h-11.545l-8.168,27.355h8.09l1.484-5.674h8.729L324.971,127.808z
			 M272.918,100.453v27.355h7.884v-10.58h10.701v-6.074h-10.701v-4.466h10.822v-6.235H272.918z M252.847,121.45
			c-3.5,0-5.269-2.816-5.269-7.32c0-4.507,1.769-7.321,5.269-7.321c3.541,0,5.188,2.814,5.188,7.321
			C258.035,118.634,256.387,121.45,252.847,121.45 M252.847,128.449c8.166,0,13.635-5.187,13.635-14.319
			c0-9.13-5.469-14.322-13.635-14.322c-8.126,0-13.716,5.191-13.716,14.322C239.131,123.263,244.721,128.449,252.847,128.449"/>
		<path fill="#0065BD" d="M434.74,86.847h18.869v-6.236h-10.982v-4.424h10.62v-6.074h-10.62v-4.385h10.982v-6.235H434.74V86.847z
			 M414.912,86.847h7.885V65.887h6.799v-6.395h-21.522v6.395h6.839V86.847z M391.34,87.489c6.437,0,11.785-3.097,11.785-10.74
			V59.492h-7.882v16.533c0,3.097-1.689,4.463-3.903,4.463c-2.212,0-3.899-1.366-3.899-4.463V59.492h-7.885v17.257
			C379.556,84.392,384.905,87.489,391.34,87.489 M359.925,86.847h7.885V65.887h6.796v-6.395h-21.521v6.395h6.84V86.847z
			 M340.054,86.847h7.885V59.492h-7.885V86.847z M320.224,86.847h7.883V65.887h6.798v-6.395h-21.521v6.395h6.84V86.847z
			 M299.104,87.489c7.479,0,11.626-4.706,11.626-9.253c0-4.463-2.294-7.079-6.757-8.164c-1.812-0.443-2.817-0.604-4.186-0.884
			c-1.848-0.404-2.654-0.927-2.654-1.973c0-1.207,1.366-1.972,4.425-1.972c3.341,0,6.111,1.048,7.482,1.812v-6.8
			c-1.771-0.762-4.667-1.407-7.885-1.407c-6.799,0-11.828,3.58-11.828,9.132c0,4.224,2.375,6.88,6.076,7.805
			c2.05,0.521,3.138,0.763,4.909,1.204c1.487,0.365,2.49,0.846,2.49,1.933c0,1.368-1.447,2.131-4.101,2.131
			c-3.621,0-7.283-1.569-9.052-2.817v7.161C291.863,86.644,295.001,87.489,299.104,87.489 M256.666,86.847h7.886V70.435h0.123
			l8.284,16.412h9.612V59.492h-7.884v16.331h-0.12l-8.207-16.331h-9.695V86.847z M240.739,86.847h7.884V59.492h-7.884V86.847z"/>
		<path fill="#0065BD" d="M444.277,45.885l-9.251-14.121l9.133-13.234h-9.616L426.9,31.122V18.53h-7.883v27.355h7.883V32.73
			l7.926,13.154H444.277z M397.941,45.885h7.88V35.869l9.453-17.339h-8.728l-4.465,9.776h-0.16l-4.304-9.776h-8.93l9.253,17.339
			V45.885z M371.229,31.161v-6.798h3.177c2.134,0,3.381,1.649,3.381,3.381c0,1.729-1.247,3.417-3.381,3.417H371.229z
			 M363.345,45.885h7.885v-9.614h2.01l4.747,9.614h8.889l-5.028-8.449c-0.521-0.884-1.164-1.688-1.527-1.931l0.043-0.16
			c2.409-1.087,5.829-3.137,5.829-7.803c0-4.908-3.9-9.013-10.296-9.013h-12.551V45.885z M342.266,34.622l2.698-10.098h0.36
			l2.696,10.098H342.266z M351.036,45.885h8.084l-8.205-27.355h-11.544l-8.166,27.355h8.087l1.486-5.672h8.729L351.036,45.885z
			 M316.242,46.529c7.482,0,11.624-4.708,11.624-9.251c0-4.466-2.294-7.081-6.758-8.168c-1.811-0.441-2.817-0.603-4.183-0.884
			c-1.85-0.402-2.654-0.925-2.654-1.971c0-1.206,1.366-1.969,4.425-1.969c3.339,0,6.113,1.044,7.479,1.807v-6.796
			c-1.769-0.767-4.663-1.409-7.885-1.409c-6.796,0-11.822,3.582-11.822,9.13c0,4.226,2.37,6.88,6.074,7.805
			c2.049,0.523,3.135,0.763,4.905,1.208c1.487,0.361,2.494,0.843,2.494,1.931c0,1.366-1.448,2.131-4.102,2.131
			c-3.623,0-7.281-1.568-9.052-2.814v7.158C309.001,45.682,312.142,46.529,316.242,46.529 M285.873,34.622l2.693-10.098h0.364
			l2.693,10.098H285.873z M294.641,45.885h8.084L294.52,18.53h-11.542l-8.168,27.355h8.086l1.488-5.672h8.728L294.641,45.885z
			 M240.739,45.885h7.521V29.19h0.121l7.081,11.625h0.562l6.758-11.665h0.119v16.734h7.682V18.53h-9.127l-5.633,9.696h-0.121
			l-5.632-9.696h-9.332V45.885z"/>
	</g>
</g>
</svg>
