<svg width="107" height="28" viewBox="0 0 107 28" fill="none" xmlns="http://www.w3.org/2000/svg">
<g clip-path="url(#clip0_6864_72883)">
<path d="M54.7613 1.99609H50.2812V21.672H54.7613V1.99609Z" fill="#1D4757"/>
<path d="M61.027 1.99609H56.5469V21.672H61.027V1.99609Z" fill="#1D4757"/>
<path d="M102.171 7.92578C100.714 7.92578 99.4992 8.59906 98.6892 9.70517V8.19616H94.1289V21.6725H98.7171V14.26C98.7171 12.643 99.4725 11.8875 100.525 11.8875C101.713 11.8875 102.279 12.6687 102.279 14.0708V21.6714H106.948V13.0737C106.948 9.81204 105.059 7.92578 102.171 7.92578Z" fill="#1D4757"/>
<path d="M89.6166 8.19531L87.0764 15.4539L84.6775 8.19531H80.1664L77.7653 15.4721L75.3631 8.19531H71.3967L68.8329 15.4721L66.5656 8.19531H61.9785L64.1281 14.662L66.4575 21.6716H70.7215L73.2852 14.6364L75.7409 21.6716H80.0048L82.4712 14.6332L84.7866 21.1052L82.1683 27.8979H86.81L94.3129 8.19531H89.6166Z" fill="#1D4757"/>
<path d="M41.3442 17.7727C39.7745 17.7727 38.5023 16.502 38.5023 14.9342C38.5023 13.3665 39.7745 12.0958 41.3442 12.0958C42.9139 12.0958 44.1861 13.3665 44.1861 14.9342C44.1861 16.502 42.9139 17.7727 41.3442 17.7727ZM43.9079 9.70508C43.1525 8.60004 41.9915 7.92676 40.3191 7.92676C37.1348 7.92676 34.1934 10.5953 34.1934 14.9342C34.1934 19.2732 37.1615 21.9417 40.2389 21.9417C41.8845 21.9417 43.1257 21.2674 43.909 20.0822V21.6724H48.4971V8.19607H43.909V9.70508H43.9079Z" fill="#1D4757"/>
<path d="M13.9516 27.8985C21.6871 27.8985 27.9579 21.6353 27.9579 13.9092C27.9579 6.18315 21.6871 -0.0800781 13.9516 -0.0800781C6.21615 -0.0800781 -0.0546875 6.18315 -0.0546875 13.9092C-0.0546875 21.6353 6.21615 27.8985 13.9516 27.8985Z" fill="#27E2CC"/>
<path d="M13.486 17.1791C11.6777 17.1791 10.2128 15.7149 10.2128 13.9088C10.2128 12.1027 11.6787 10.6386 13.486 10.6386C15.2932 10.6386 16.7602 12.1027 16.7602 13.9088C16.7602 15.7149 15.2943 17.1791 13.486 17.1791ZM16.4392 7.88562C15.5693 6.61279 14.2318 5.83691 12.3047 5.83691C8.63674 5.83691 5.24805 8.9105 5.24805 13.9099C5.24805 18.9093 8.66777 21.9829 12.2116 21.9829C14.1076 21.9829 15.5382 21.2059 16.4392 19.8401V21.6719H21.7239V6.14684H16.4392V7.88562Z" fill="#1D4757"/>
</g>
<defs>
<clipPath id="clip0_6864_72883">
<rect width="107" height="28" fill="white"/>
</clipPath>
</defs>
</svg>
