<?xml version="1.0" encoding="UTF-8" standalone="no"?>
<svg
   xmlns:dc="http://purl.org/dc/elements/1.1/"
   xmlns:cc="http://creativecommons.org/ns#"
   xmlns:rdf="http://www.w3.org/1999/02/22-rdf-syntax-ns#"
   xmlns:svg="http://www.w3.org/2000/svg"
   xmlns="http://www.w3.org/2000/svg"
   xmlns:sodipodi="http://sodipodi.sourceforge.net/DTD/sodipodi-0.dtd"
   xmlns:inkscape="http://www.inkscape.org/namespaces/inkscape"
   width="350"
   height="115"
   viewBox="0 0 92.604167 30.427084"
   version="1.1"
   id="svg8"
   inkscape:version="1.0.2-2 (e86c870879, 2021-01-15)"
   sodipodi:docname="skodalogo.svg">
  <defs
     id="defs2">
    <inkscape:path-effect
       effect="powerstroke"
       id="path-effect885"
       is_visible="true"
       lpeversion="1"
       offset_points="0,0.207284"
       sort_points="true"
       interpolator_type="CubicBezierJohan"
       interpolator_beta="0.2"
       start_linecap_type="zerowidth"
       linejoin_type="extrp_arc"
       miter_limit="4"
       scale_width="1"
       end_linecap_type="zerowidth" />
    <inkscape:path-effect
       effect="powerstroke"
       id="path-effect880"
       is_visible="true"
       lpeversion="1"
       offset_points="0,0.207284"
       sort_points="true"
       interpolator_type="CubicBezierJohan"
       interpolator_beta="0.2"
       start_linecap_type="zerowidth"
       linejoin_type="extrp_arc"
       miter_limit="4"
       scale_width="1"
       end_linecap_type="zerowidth" />
    <inkscape:path-effect
       effect="powerstroke"
       id="path-effect875"
       is_visible="true"
       lpeversion="1"
       offset_points="0,0.207284"
       sort_points="true"
       interpolator_type="CubicBezierJohan"
       interpolator_beta="0.2"
       start_linecap_type="zerowidth"
       linejoin_type="extrp_arc"
       miter_limit="4"
       scale_width="1"
       end_linecap_type="zerowidth" />
    <inkscape:path-effect
       effect="powerstroke"
       id="path-effect870"
       is_visible="true"
       lpeversion="1"
       offset_points="0,0.207284"
       sort_points="true"
       interpolator_type="CubicBezierJohan"
       interpolator_beta="0.2"
       start_linecap_type="zerowidth"
       linejoin_type="extrp_arc"
       miter_limit="4"
       scale_width="1"
       end_linecap_type="zerowidth" />
    <inkscape:path-effect
       effect="powerstroke"
       id="path-effect866"
       is_visible="true"
       lpeversion="1"
       offset_points="0,0.207284"
       sort_points="true"
       interpolator_type="CubicBezierJohan"
       interpolator_beta="0.2"
       start_linecap_type="zerowidth"
       linejoin_type="extrp_arc"
       miter_limit="4"
       scale_width="1"
       end_linecap_type="zerowidth" />
    <inkscape:path-effect
       effect="powerstroke"
       id="path-effect862"
       is_visible="true"
       lpeversion="1"
       offset_points="0,0.207284"
       sort_points="true"
       interpolator_type="CubicBezierJohan"
       interpolator_beta="0.2"
       start_linecap_type="zerowidth"
       linejoin_type="extrp_arc"
       miter_limit="4"
       scale_width="1"
       end_linecap_type="zerowidth" />
    <inkscape:path-effect
       effect="powerstroke"
       id="path-effect858"
       is_visible="true"
       lpeversion="1"
       offset_points="0,0.207284"
       sort_points="true"
       interpolator_type="CubicBezierJohan"
       interpolator_beta="0.2"
       start_linecap_type="zerowidth"
       linejoin_type="extrp_arc"
       miter_limit="4"
       scale_width="1"
       end_linecap_type="zerowidth" />
    <inkscape:path-effect
       effect="powerstroke"
       id="path-effect854"
       is_visible="true"
       lpeversion="1"
       offset_points="0,0.207284"
       sort_points="true"
       interpolator_type="CubicBezierJohan"
       interpolator_beta="0.2"
       start_linecap_type="zerowidth"
       linejoin_type="extrp_arc"
       miter_limit="4"
       scale_width="1"
       end_linecap_type="zerowidth" />
    <inkscape:path-effect
       effect="powerstroke"
       id="path-effect850"
       is_visible="true"
       lpeversion="1"
       offset_points="0,0.207284"
       sort_points="true"
       interpolator_type="CubicBezierJohan"
       interpolator_beta="0.2"
       start_linecap_type="zerowidth"
       linejoin_type="extrp_arc"
       miter_limit="4"
       scale_width="1"
       end_linecap_type="zerowidth" />
  </defs>
  <sodipodi:namedview
     id="base"
     pagecolor="#ffffff"
     bordercolor="#666666"
     borderopacity="1.0"
     inkscape:pageopacity="0.0"
     inkscape:pageshadow="2"
     inkscape:zoom="0.98994949"
     inkscape:cx="48.426091"
     inkscape:cy="-56.839273"
     inkscape:document-units="mm"
     inkscape:current-layer="layer2"
     inkscape:document-rotation="0"
     showgrid="false"
     units="px"
     inkscape:window-width="1267"
     inkscape:window-height="1040"
     inkscape:window-x="78"
     inkscape:window-y="0"
     inkscape:window-maximized="0" />
  <metadata
     id="metadata5">
    <rdf:RDF>
      <cc:Work
         rdf:about="">
        <dc:format>image/svg+xml</dc:format>
        <dc:type
           rdf:resource="http://purl.org/dc/dcmitype/StillImage" />
        <dc:title></dc:title>
      </cc:Work>
    </rdf:RDF>
  </metadata>
  <g
     inkscape:groupmode="layer"
     id="layer2"
     inkscape:label="Layer 1">
    <g
       id="g903"
       transform="matrix(0.52067672,0,0,0.52067672,-7.7674771,-32.225501)">
      <path
         id="path848"
         style="opacity:1;fill:#004b8f;fill-opacity:0.996078;fill-rule:nonzero;stroke:none;stroke-width:0.999999px;stroke-linecap:butt;stroke-linejoin:miter;stroke-opacity:1"
         d="m 163.9375,261.95898 c -6.75116,0.0498 -13.97589,1.23535 -21.63281,3.45899 -2.90382,0.94103 -3.9987,5.2923 -1.51563,7.44922 6.45662,5.03172 12.67389,10.48501 18.1836,17.17383 2.30635,3.04129 -1.55175,6.1759 -4.29297,3.28125 -5.61558,-6.13479 -11.33253,-12.50966 -22.09766,-19.57032 -3.15345,-2.23497 -6.14836,-1.67782 -9.72265,0.37891 -7.22012,4.82471 -13.51574,10.01268 -19.17774,16.07226 -1.86154,2.35554 -2.04408,6.34059 2.50977,7.66602 7.54446,2.20776 13.94991,6.00987 20.33007,9.84766 3.14162,2.35844 0.41319,6.54401 -2.77734,4.67382 -6.6468,-4.48149 -13.82799,-8.46456 -22.98047,-10.60742 -3.186892,-1.08865 -6.023178,0.89971 -7.308592,3.46094 -3.834724,7.86196 -7.0728,15.08254 -8.287109,22.45508 -0.572803,4.13304 1.666033,5.43593 5.240234,5.27148 33.772857,-0.79725 48.669367,26.20315 50.634767,43.18555 -0.2078,2.52485 -1.72204,4.78196 -4.1875,5.07227 -2.18093,0.27439 -10.03168,0.45414 -12.48047,-1.15821 l -5.93555,-3.53515 c -2.08164,-1.171 -5.39871,-2.35025 -7.07031,-2.40039 l -19.445312,0.12695 c -2.89559,-0.12578 -3.56343,3.10867 -1.009766,4.41992 9.346928,5.67065 13.428818,14.64221 14.900388,22.22266 0.40219,2.14038 1.641,2.22929 3.0293,2.14648 l 4.04102,-0.50586 c 3.07105,-0.58802 4.40409,-1.42405 5.30273,-1.76758 l 9.72266,-3.66211 c 2.73982,-0.80723 5.46503,-1.62606 9.59765,-1.38867 h 65.53321 c 2.23551,-0.32012 3.34529,1.5268 4.04101,4.16797 0.9385,2.2769 2.20821,3.17489 4.79688,3.0293 8.42837,-0.90569 16.84998,-1.74026 26.26367,-13.32031 0.53595,-0.78875 0.69258,-0.89369 0,-1.83204 -4.70709,-6.26135 -10.55625,-12.03978 -25.82031,-13.84375 -2.25746,-0.12139 -3.312,2.32298 -4.06055,4.10743 l -1.20899,2.23242 c -1.86094,2.66963 -7.35989,0.80723 -5.80273,-3.48242 17.53217,-37.04504 9.5062,-79.32511 -18.16016,-108.58985 -3.45919,-3.61285 -8.66224,-6.0477 -16.28906,-6.1875 -0.94504,-0.0395 -1.89883,-0.0559 -2.86328,-0.0488 z m 14.60742,88.0586 a 11.995562,11.995562 0 0 1 11.99414,11.99609 11.995562,11.995562 0 0 1 -11.99414,11.9961 11.995562,11.995562 0 0 1 -11.99609,-11.9961 11.995562,11.995562 0 0 1 11.99609,-11.99609 z"
         transform="scale(0.26458333)" />
      <path
         style="opacity:1;fill:#004b8f;fill-opacity:0.996078;fill-rule:nonzero;stroke:none;stroke-width:0.264583px;stroke-linecap:butt;stroke-linejoin:miter;stroke-opacity:1"
         d="m 99.454985,80.154575 -0.73233,6.425594 c -0.04266,0.643534 -0.381026,0.66608 -0.73233,0.661459 h -10.29985 c -0.55942,-0.0088 -0.825447,0.251276 -0.850445,0.732329 l -0.0945,1.322917 c -0.03986,0.493977 0.284442,0.606458 0.708707,0.614212 h 4.630209 c 3.296575,0.01293 5.944921,3.098091 5.602562,6.539804 l -0.968854,7.3165 c -0.484856,3.54534 -3.926572,4.83277 -5.545841,4.84426 H 77.603235 c -0.500629,-0.006 -0.744358,-0.29298 -0.661458,-1.03018 l 0.614212,-6.02399 c 0.0741,-0.65816 0.485299,-0.67277 0.897694,-0.68509 h 10.276226 c 0.61628,-0.002 0.740511,-0.16877 0.803201,-0.73806 l 0.165364,-1.813275 c 0.04504,-0.531745 -0.350552,-0.825393 -0.850447,-0.826823 h -5.173548 c -2.314505,-0.0045 -5.498596,-2.608065 -4.960938,-6.709077 l 0.732329,-5.905878 c 0.188599,-2.576209 2.438313,-5.327976 5.350724,-5.303478 h 1.252048 c 0.504734,0 0.790048,-0.683383 0.555152,-1.311105 L 85.446242,75.666107 C 85.108387,74.9434 84.960124,73.628863 86.391183,73.634485 h 1.96075 c 0.796181,-0.02621 0.87233,0.385672 1.039434,0.826823 l 0.295296,0.755954 c 0.296166,0.60951 1.113389,0.543379 1.48828,0 l 0.799183,-1.116787 c 0.237751,-0.358446 0.502612,-0.486704 0.935443,-0.484426 h 2.321904 c 1.143307,0.01314 1.388631,1.248766 0.851921,1.887591 l -1.954408,2.472245 c -0.597831,0.741573 -0.345286,1.565857 0.65147,1.586913 h 4.001259 c 0.419237,-0.01379 0.631934,0.196174 0.67327,0.591777 z"
         id="path852"
         sodipodi:nodetypes="cccccccccccccccccccccccsccccccccccccccc" />
      <path
         style="opacity:1;fill:#004b8f;fill-opacity:0.996078;fill-rule:nonzero;stroke:none;stroke-width:0.264583px;stroke-linecap:butt;stroke-linejoin:miter;stroke-opacity:1"
         d="M 103.48342,80.347901 100.343,107.77643 c -0.0865,0.64281 0.37521,0.81304 0.81852,0.81852 l 6.27821,-0.0685 c 0.44206,-0.0902 0.57923,-0.368 0.61421,-0.7087 l 1.01581,-9.898253 c 0.0712,-0.455105 0.19361,-1.113538 1.13393,-1.086684 h 0.70871 c 1.57053,0.119153 2.23641,1.680036 2.14974,2.598587 l -0.96857,8.29185 c -0.11155,0.60981 0.23884,0.83802 0.85045,0.85045 h 5.874 c 0.59212,0.0675 0.96403,-0.25037 1.05237,-1.06449 l 0.70402,-7.13287 c 0.20993,-1.893779 0.35979,-3.961644 -1.20479,-5.953124 1.56974,-1.716009 2.34037,-3.618478 2.57496,-5.646021 l 0.92131,-8.48084 c 0.0945,-0.578752 -0.18003,-0.801706 -0.7087,-0.779573 h -6.11849 c -0.90063,-0.02716 -0.81883,0.471971 -0.87407,0.897691 l -0.72315,7.032816 c -0.1092,1.060404 -1.32404,1.777744 -1.90429,1.770659 l -1.36977,-0.0167 c -0.5414,-0.01047 -0.98926,-0.435387 -0.90203,-1.135896 l 0.85192,-7.550365 c 0.066,-0.505643 0.0941,-0.99046 -0.73499,-1.00226 h -5.98015 c -0.62922,-0.01117 -0.8686,0.242207 -0.91874,0.835178 z"
         id="path856"
         sodipodi:nodetypes="cccccccccccccccccccccccccccc" />
      <path
         id="path860"
         style="opacity:1;fill:#004b8f;fill-opacity:0.996078;fill-rule:nonzero;stroke:none;stroke-width:0.999999px;stroke-linecap:butt;stroke-linejoin:miter;stroke-opacity:1"
         d="m 498.75,300.71484 c -10.01579,0.0227 -19.17004,7.96397 -20.71484,20.17774 l -7.32032,64.28515 c -1.54892,14.06593 10.65166,25.05318 20.19141,25 H 522.5 c 11.17149,-0.12472 19.3381,-7.8655 20.89258,-17.14257 l 7.5,-68.39258 c 1.32933,-12.92585 -9.04707,-23.91534 -19.34961,-23.92774 z m 10.53516,29.01758 h 8.92968 c 1.81939,-0.005 3.08639,1.25181 2.92878,2.84024 l -4.71589,45.41757 c -0.35693,2.52858 -1.82961,3.39497 -3.57031,3.34961 l -8.52903,-0.0631 c -2.21027,0.0102 -3.48501,-0.80867 -3.15657,-3.45571 l 4.8106,-45.23116 c 0.1646,-1.62136 1.21534,-2.85501 3.30274,-2.85742 z"
         transform="scale(0.26458333)"
         sodipodi:nodetypes="cccccccccccccccccc" />
      <path
         id="path864"
         style="opacity:1;fill:#004b8f;fill-opacity:0.996078;fill-rule:nonzero;stroke:none;stroke-width:0.999999px;stroke-linecap:butt;stroke-linejoin:miter;stroke-opacity:1"
         d="m 571.09375,300.5918 c -1.68293,0.0492 -2.44499,1.3245 -2.52148,3.51562 l -11.42969,102.41016 c -0.39829,2.4573 0.59327,3.81708 3.39258,3.75 h 41.89453 c 15.748,-0.11225 28.95874,-10.29593 30.93554,-29.81836 l 5.05079,-48.10938 c 1.54597,-13.45801 -8.49393,-31.72308 -28.03125,-31.69336 h -38.51172 c -0.27863,-0.0439 -0.53888,-0.0617 -0.7793,-0.0547 z M 596.875,330 h 4.10742 c 3.81547,-0.0365 8.47056,4.67112 8.03516,9.28516 L 605,373.57227 c -0.7567,5.06958 -5.83275,7.81502 -8.57227,7.85546 h -3.57031 c -2.48062,-1.8e-4 -3.96554,-1.2158 -3.66015,-3.75 L 594.375,332.5 c 0.12711,-1.30414 0.43933,-2.48488 2.5,-2.5 z"
         transform="scale(0.26458333)" />
      <path
         id="path868"
         style="opacity:1;fill:#004b8f;fill-opacity:0.996078;fill-rule:nonzero;stroke:none;stroke-width:0.999999px;stroke-linecap:butt;stroke-linejoin:miter;stroke-opacity:1"
         d="m 677.93945,300.26758 c -14.78211,0.066 -21.68595,11.71281 -22.75,20.92773 l -9.57617,85.58008 c -0.41238,2.29134 0.20588,3.62006 2.40039,3.47266 h 23.86328 c 1.75246,0.12657 2.5658,-1.02176 2.65235,-3.15625 l 2.65234,-22.98047 c 0.12095,-1.55486 0.77197,-3.15832 3.0293,-3.15821 h 9.4707 c 1.94944,-0.0695 2.82242,1.36534 2.65234,2.65235 l -2.77929,23.35937 c -0.15591,1.64459 0.5122,3.15636 3.41015,3.03125 h 22.22266 c 2.42759,0.0527 3.28609,-1.28164 3.53516,-3.15625 l 9.72265,-84.0957 c 1.1031,-9.46606 -9.09198,-22.52849 -19.82422,-22.47656 z m 8.33203,29.61133 h 8.77735 c 1.86999,-0.006 3.10592,1.01323 2.88141,2.88839 l -1.49274,17.69168 c -0.23252,2.12044 -1.51359,2.8578 -3.41016,2.7793 h -8.39648 c -2.01348,0.0702 -3.60699,-1.03792 -3.24945,-3.48856 l 1.73382,-16.96847 c 0.21835,-2.00129 1.52951,-2.95911 3.15625,-2.90234 z"
         transform="scale(0.26458333)"
         sodipodi:nodetypes="cccccccccccccccccccccccccc" />
      <path
         id="path891"
         style="opacity:1;fill:#004b8f;fill-opacity:0.996078;stroke-width:0.690947"
         d="M 166.40234,234.28516 A 110.01757,110.01757 0 0 0 56.384766,344.30273 110.01757,110.01757 0 0 0 166.40234,454.32031 110.01757,110.01757 0 0 0 276.41992,344.30273 110.01757,110.01757 0 0 0 166.40234,234.28516 Z m -0.0352,21.72656 a 88.418704,88.418704 0 0 1 88.41797,88.41992 88.418704,88.418704 0 0 1 -88.41797,88.41797 88.418704,88.418704 0 0 1 -88.417971,-88.41797 88.418704,88.418704 0 0 1 88.417971,-88.41992 z"
         transform="scale(0.26458333)" />
    </g>
  </g>
</svg>
